<?xml version="1.0" encoding="UTF-8" standalone="no"?>
<svg width="125px" height="185px" viewBox="0 0 125 185" version="1.1" xmlns="http://www.w3.org/2000/svg" xmlns:xlink="http://www.w3.org/1999/xlink">
    <!-- Generator: Sketch 3.7 (28169) - http://www.bohemiancoding.com/sketch -->
    <title>Ah Coon</title>
    <desc>Created with Sketch.</desc>
    <defs>
        <rect id="path-1" x="0" y="0.195967778" width="124.771503" height="184.217612" rx="65"></rect>
        <mask id="mask-2" maskContentUnits="userSpaceOnUse" maskUnits="objectBoundingBox" x="0" y="0" width="124.771503" height="184.217612" fill="white">
            <use xlink:href="#path-1"></use>
        </mask>
    </defs>
    <g id="Welcome" stroke="none" stroke-width="1" fill="none" fill-rule="evenodd">
        <g id="Landing__home2" transform="translate(-805.000000, -1206.000000)">
            <g id="Ah-Coon" transform="translate(805.000000, 1206.000000)">
                <use id="Rectangle-552" stroke="#4A4A4A" mask="url(#mask-2)" stroke-width="20" fill="#FFFFFF" xlink:href="#path-1"></use>
                <ellipse id="Oval-410" fill="#4A4A4A" cx="35.60234" cy="54.2527317" rx="5.8792855" ry="7.02247991"></ellipse>
                <ellipse id="Oval-410" fill="#4A4A4A" cx="89.1691635" cy="54.2527317" rx="5.8792855" ry="7.02247991"></ellipse>
                <path d="M78.7827697,98.8373135 C76.8225049,106.743722 70.253362,112.555646 62.4514211,112.555646 C54.6494801,112.555646 48.0803372,106.743722 46.1200724,98.8373135 L78.7827697,98.8373135 Z" id="Combined-Shape" fill="#4A4A4A"></path>
                <path d="M62.5490652,110.922511 C65.7059094,110.922511 68.2650372,110.045096 68.2650372,108.96275 C68.2650372,107.880403 65.7059094,107.002988 62.5490652,107.002988 C59.3922211,107.002988 56.8330932,107.880403 56.8330932,108.96275 C56.8330932,110.045096 59.3922211,110.922511 62.5490652,110.922511 Z" id="Oval-413" fill="#F75347"></path>
            </g>
        </g>
    </g>
</svg>