<?xml version="1.0" encoding="UTF-8" standalone="no"?>
<svg width="170px" height="34px" viewBox="0 0 170 34" version="1.1" xmlns="http://www.w3.org/2000/svg" xmlns:xlink="http://www.w3.org/1999/xlink">
    <!-- Generator: Sketch 3.7 (28169) - http://www.bohemiancoding.com/sketch -->
    <title>Brand</title>
    <desc>Created with Sketch.</desc>
    <defs></defs>
    <g id="Welcome" stroke="none" stroke-width="1" fill="none" fill-rule="evenodd">
        <g id="Landing__home2" transform="translate(-50.000000, -60.000000)">
            <g id="Brand" transform="translate(50.000000, 60.000000)">
                <path d="M25.2808989,31.3544869 C22.7965252,32.8002868 19.9079174,33.6284514 16.8257488,33.6284514 C7.53314431,33.6284514 0,26.1004661 0,16.8142257 C0,7.52798526 7.53314431,0 16.8257488,0 C19.9079174,0 22.7965252,0.828164575 25.2808989,2.27396453 C27.765275,0.828163847 30.6538817,0 33.736049,0 C43.0286534,0 50.5617978,7.52798526 50.5617978,16.8142257 C50.5617978,26.1004661 43.0286534,33.6284514 33.736049,33.6284514 C30.6538817,33.6284514 27.765275,32.8002875 25.2809022,31.3544888 Z M18.979708,24.8995433 C18.2924398,25.0819094 17.5704511,25.1790917 16.8257488,25.1790917 C12.2027948,25.1790917 8.45515013,21.4340136 8.45515013,16.8142257 C8.45515013,12.1944377 12.2027948,8.44935964 16.8257488,8.44935964 C17.5704511,8.44935964 18.2924398,8.54654195 18.979708,8.72890806 C17.6605975,11.1279861 16.9103003,13.8835452 16.9103003,16.8142257 C16.9103003,19.7449062 17.6605975,22.5004653 18.979708,24.8995433 Z M33.736049,25.1790917 C38.359003,25.1790917 42.1066476,21.4340136 42.1066476,16.8142257 C42.1066476,12.1944377 38.359003,8.44935964 33.736049,8.44935964 C29.113095,8.44935964 25.3654504,12.1944377 25.3654504,16.8142257 C25.3654504,21.4340136 29.113095,25.1790917 33.736049,25.1790917 Z" id="Oval-3" fill="#FFFFFF"></path>
                <path d="M72.5742188,10.1237793 C73.6891332,10.5754417 74.6738239,11.2000286 75.5283203,11.9975586 L74.3198242,13.5234375 C73.6362271,12.8398403 72.8407435,12.3027363 71.9333496,11.9121094 C71.0259557,11.5214824 70.0961962,11.3261719 69.144043,11.3261719 C67.8419531,11.3261719 66.645676,11.6333791 65.5551758,12.2478027 C64.4646755,12.8622264 63.6040884,13.6963652 62.9733887,14.7502441 C62.3426889,15.8041231 62.0273438,16.961745 62.0273438,18.2231445 C62.0273438,19.476406 62.3426889,20.6319934 62.9733887,21.6899414 C63.6040884,22.7478894 64.46671,23.5840627 65.5612793,24.1984863 C66.6558486,24.81291 67.8500912,25.1201172 69.144043,25.1201172 C70.0961962,25.1201172 71.0218868,24.9370135 71.9211426,24.5708008 C72.8203984,24.204588 73.6199509,23.6878289 74.3198242,23.0205078 L75.5527344,24.3999023 C74.6656857,25.2299846 73.6565812,25.8871232 72.5253906,26.3713379 C71.3942001,26.8555526 70.2345437,27.0976562 69.0463867,27.0976562 C67.3943602,27.0976562 65.878669,26.7029662 64.4992676,25.9135742 C63.1198661,25.1241823 62.0253133,24.0499742 61.2155762,22.690918 C60.4058391,21.3318617 60.0009766,19.8426188 60.0009766,18.2231445 C60.0009766,16.6199464 60.409908,15.1490139 61.2277832,13.8103027 C62.0456584,12.4715916 63.1503837,11.4095905 64.5419922,10.6242676 C65.9336007,9.83894464 67.4594644,9.44628906 69.1196289,9.44628906 C70.3077859,9.44628906 71.4593043,9.67211688 72.5742188,10.1237793 L72.5742188,10.1237793 Z M87.2409668,14.6159668 C88.2541555,15.173424 89.0455701,15.9567007 89.6152344,16.9658203 C90.1848987,17.9749399 90.4697266,19.1183204 90.4697266,20.3959961 C90.4697266,21.6980859 90.1848987,22.8536733 89.6152344,23.862793 C89.0455701,24.8719126 88.2541555,25.6592582 87.2409668,26.2248535 C86.2277781,26.7904488 85.0782942,27.0732422 83.7924805,27.0732422 C82.5066667,27.0732422 81.3551483,26.7904488 80.3378906,26.2248535 C79.3206329,25.6592582 78.5292183,24.8719126 77.963623,23.862793 C77.3980278,22.8536733 77.1152344,21.6980859 77.1152344,20.3959961 C77.1152344,19.1101824 77.3980278,17.9647674 77.963623,16.9597168 C78.5292183,15.9546662 79.3206329,15.173424 80.3378906,14.6159668 C81.3551483,14.0585096 82.5066667,13.7797852 83.7924805,13.7797852 C85.0782942,13.7797852 86.2277781,14.0585096 87.2409668,14.6159668 L87.2409668,14.6159668 Z M81.3510742,16.1723633 C80.6267867,16.5874044 80.0652689,17.1631636 79.6665039,17.8996582 C79.2677389,18.6361528 79.0683594,19.476395 79.0683594,20.4204102 C79.0683594,21.3725634 79.2677389,22.2189091 79.6665039,22.9594727 C80.0652689,23.7000363 80.6267867,24.2798644 81.3510742,24.6989746 C82.0753617,25.1180848 82.8891556,25.3276367 83.7924805,25.3276367 C84.6958053,25.3276367 85.5095992,25.1180848 86.2338867,24.6989746 C86.9581742,24.2798644 87.519692,23.7000363 87.918457,22.9594727 C88.317222,22.2189091 88.5166016,21.3725634 88.5166016,20.4204102 C88.5166016,19.468257 88.317222,18.6259802 87.918457,17.8935547 C87.519692,17.1611292 86.9561397,16.5874044 86.2277832,16.1723633 C85.4994267,15.7573221 84.6876672,15.5498047 83.7924805,15.5498047 C82.8891556,15.5498047 82.0753617,15.7573221 81.3510742,16.1723633 L81.3510742,16.1723633 Z M102.682861,14.6159668 C103.69605,15.173424 104.487465,15.9567007 105.057129,16.9658203 C105.626793,17.9749399 105.911621,19.1183204 105.911621,20.3959961 C105.911621,21.6980859 105.626793,22.8536733 105.057129,23.862793 C104.487465,24.8719126 103.69605,25.6592582 102.682861,26.2248535 C101.669673,26.7904488 100.520189,27.0732422 99.234375,27.0732422 C97.9485613,27.0732422 96.7970428,26.7904488 95.7797852,26.2248535 C94.7625275,25.6592582 93.9711129,24.8719126 93.4055176,23.862793 C92.8399223,22.8536733 92.5571289,21.6980859 92.5571289,20.3959961 C92.5571289,19.1101824 92.8399223,17.9647674 93.4055176,16.9597168 C93.9711129,15.9546662 94.7625275,15.173424 95.7797852,14.6159668 C96.7970428,14.0585096 97.9485613,13.7797852 99.234375,13.7797852 C100.520189,13.7797852 101.669673,14.0585096 102.682861,14.6159668 L102.682861,14.6159668 Z M96.7929688,16.1723633 C96.0686813,16.5874044 95.5071635,17.1631636 95.1083984,17.8996582 C94.7096334,18.6361528 94.5102539,19.476395 94.5102539,20.4204102 C94.5102539,21.3725634 94.7096334,22.2189091 95.1083984,22.9594727 C95.5071635,23.7000363 96.0686813,24.2798644 96.7929688,24.6989746 C97.5172562,25.1180848 98.3310502,25.3276367 99.234375,25.3276367 C100.1377,25.3276367 100.951494,25.1180848 101.675781,24.6989746 C102.400069,24.2798644 102.961587,23.7000363 103.360352,22.9594727 C103.759117,22.2189091 103.958496,21.3725634 103.958496,20.4204102 C103.958496,19.468257 103.759117,18.6259802 103.360352,17.8935547 C102.961587,17.1611292 102.398034,16.5874044 101.669678,16.1723633 C100.941321,15.7573221 100.129562,15.5498047 99.234375,15.5498047 C98.3310502,15.5498047 97.5172562,15.7573221 96.7929688,16.1723633 L96.7929688,16.1723633 Z M120.523438,10.1237793 C121.638352,10.5754417 122.623043,11.2000286 123.477539,11.9975586 L122.269043,13.5234375 C121.585446,12.8398403 120.789962,12.3027363 119.882568,11.9121094 C118.975174,11.5214824 118.045415,11.3261719 117.093262,11.3261719 C115.791172,11.3261719 114.594895,11.6333791 113.504395,12.2478027 C112.413894,12.8622264 111.553307,13.6963652 110.922607,14.7502441 C110.291908,15.8041231 109.976562,16.961745 109.976562,18.2231445 C109.976562,19.476406 110.291908,20.6319934 110.922607,21.6899414 C111.553307,22.7478894 112.415929,23.5840627 113.510498,24.1984863 C114.605067,24.81291 115.79931,25.1201172 117.093262,25.1201172 C118.045415,25.1201172 118.971106,24.9370135 119.870361,24.5708008 C120.769617,24.204588 121.56917,23.6878289 122.269043,23.0205078 L123.501953,24.3999023 C122.614904,25.2299846 121.6058,25.8871232 120.474609,26.3713379 C119.343419,26.8555526 118.183762,27.0976562 116.995605,27.0976562 C115.343579,27.0976562 113.827888,26.7029662 112.448486,25.9135742 C111.069085,25.1241823 109.974532,24.0499742 109.164795,22.690918 C108.355058,21.3318617 107.950195,19.8426188 107.950195,18.2231445 C107.950195,16.6199464 108.359127,15.1490139 109.177002,13.8103027 C109.994877,12.4715916 111.099602,11.4095905 112.491211,10.6242676 C113.882819,9.83894464 115.408683,9.44628906 117.068848,9.44628906 C118.257005,9.44628906 119.408523,9.67211688 120.523438,10.1237793 L120.523438,10.1237793 Z M135.190186,14.6159668 C136.203374,15.173424 136.994789,15.9567007 137.564453,16.9658203 C138.134117,17.9749399 138.418945,19.1183204 138.418945,20.3959961 C138.418945,21.6980859 138.134117,22.8536733 137.564453,23.862793 C136.994789,24.8719126 136.203374,25.6592582 135.190186,26.2248535 C134.176997,26.7904488 133.027513,27.0732422 131.741699,27.0732422 C130.455885,27.0732422 129.304367,26.7904488 128.287109,26.2248535 C127.269852,25.6592582 126.478437,24.8719126 125.912842,23.862793 C125.347247,22.8536733 125.064453,21.6980859 125.064453,20.3959961 C125.064453,19.1101824 125.347247,17.9647674 125.912842,16.9597168 C126.478437,15.9546662 127.269852,15.173424 128.287109,14.6159668 C129.304367,14.0585096 130.455885,13.7797852 131.741699,13.7797852 C133.027513,13.7797852 134.176997,14.0585096 135.190186,14.6159668 L135.190186,14.6159668 Z M129.300293,16.1723633 C128.576005,16.5874044 128.014488,17.1631636 127.615723,17.8996582 C127.216958,18.6361528 127.017578,19.476395 127.017578,20.4204102 C127.017578,21.3725634 127.216958,22.2189091 127.615723,22.9594727 C128.014488,23.7000363 128.576005,24.2798644 129.300293,24.6989746 C130.02458,25.1180848 130.838374,25.3276367 131.741699,25.3276367 C132.645024,25.3276367 133.458818,25.1180848 134.183105,24.6989746 C134.907393,24.2798644 135.468911,23.7000363 135.867676,22.9594727 C136.266441,22.2189091 136.46582,21.3725634 136.46582,20.4204102 C136.46582,19.468257 136.266441,18.6259802 135.867676,17.8935547 C135.468911,17.1611292 134.905358,16.5874044 134.177002,16.1723633 C133.448645,15.7573221 132.636886,15.5498047 131.741699,15.5498047 C130.838374,15.5498047 130.02458,15.7573221 129.300293,16.1723633 L129.300293,16.1723633 Z M150.63208,14.6159668 C151.645269,15.173424 152.436683,15.9567007 153.006348,16.9658203 C153.576012,17.9749399 153.86084,19.1183204 153.86084,20.3959961 C153.86084,21.6980859 153.576012,22.8536733 153.006348,23.862793 C152.436683,24.8719126 151.645269,25.6592582 150.63208,26.2248535 C149.618891,26.7904488 148.469407,27.0732422 147.183594,27.0732422 C145.89778,27.0732422 144.746262,26.7904488 143.729004,26.2248535 C142.711746,25.6592582 141.920332,24.8719126 141.354736,23.862793 C140.789141,22.8536733 140.506348,21.6980859 140.506348,20.3959961 C140.506348,19.1101824 140.789141,17.9647674 141.354736,16.9597168 C141.920332,15.9546662 142.711746,15.173424 143.729004,14.6159668 C144.746262,14.0585096 145.89778,13.7797852 147.183594,13.7797852 C148.469407,13.7797852 149.618891,14.0585096 150.63208,14.6159668 L150.63208,14.6159668 Z M144.742188,16.1723633 C144.0179,16.5874044 143.456382,17.1631636 143.057617,17.8996582 C142.658852,18.6361528 142.459473,19.476395 142.459473,20.4204102 C142.459473,21.3725634 142.658852,22.2189091 143.057617,22.9594727 C143.456382,23.7000363 144.0179,24.2798644 144.742188,24.6989746 C145.466475,25.1180848 146.280269,25.3276367 147.183594,25.3276367 C148.086919,25.3276367 148.900713,25.1180848 149.625,24.6989746 C150.349287,24.2798644 150.910805,23.7000363 151.30957,22.9594727 C151.708335,22.2189091 151.907715,21.3725634 151.907715,20.4204102 C151.907715,19.468257 151.708335,18.6259802 151.30957,17.8935547 C150.910805,17.1611292 150.347253,16.5874044 149.618896,16.1723633 C148.89054,15.7573221 148.078781,15.5498047 147.183594,15.5498047 C146.280269,15.5498047 145.466475,15.7573221 144.742188,16.1723633 L144.742188,16.1723633 Z M168.002686,15.1164551 C168.885665,16.0238489 169.327148,17.2750571 169.327148,18.8701172 L169.327148,27 L167.374023,27 L167.374023,19.3950195 C167.374023,18.2312767 167.044437,17.3238965 166.385254,16.6728516 C165.726071,16.0218066 164.814622,15.6962891 163.650879,15.6962891 C162.365065,15.7125652 161.335616,16.1052208 160.5625,16.8742676 C159.789384,17.6433144 159.341797,18.6585223 159.219727,19.9199219 L159.219727,27 L157.278809,27 L157.278809,13.8286133 L159.219727,13.8286133 L159.219727,16.7216797 C160.123051,14.7685449 161.823881,13.7797853 164.322266,13.7553711 C165.892911,13.7553711 167.119706,14.2090612 168.002686,15.1164551 L168.002686,15.1164551 Z" id="CooCoon" fill="#FAFAFA"></path>
            </g>
        </g>
    </g>
</svg>