<?xml version="1.0" encoding="UTF-8" standalone="no"?>
<svg width="499px" height="404px" viewBox="0 0 499 404" version="1.1" xmlns="http://www.w3.org/2000/svg" xmlns:xlink="http://www.w3.org/1999/xlink">
    <!-- Generator: Sketch 3.7 (28169) - http://www.bohemiancoding.com/sketch -->
    <title>Hero</title>
    <desc>Created with Sketch.</desc>
    <defs></defs>
    <g id="Welcome" stroke="none" stroke-width="1" fill="none" fill-rule="evenodd">
        <g id="Landing__home2" transform="translate(-351.000000, -221.000000)">
            <g id="Hero" transform="translate(350.000000, 210.000000)">
                <path d="M95.3458585,244.978598 L95.3458585,252.960598 C94.2304196,253.840669 92.9512659,254.541645 91.5083588,255.063547 C90.0654516,255.58545 88.6174496,255.846397 87.1643091,255.846397 C85.0664654,255.846397 83.1451765,255.350086 81.4003845,254.357447 C79.6555926,253.364809 78.2689899,252.019139 77.2405348,250.320398 C76.2120798,248.621656 75.69786,246.754092 75.69786,244.717648 C75.69786,242.681205 76.2120798,240.821315 77.2405348,239.137924 C78.2689899,237.454532 79.6735008,236.119095 81.4541095,235.131574 C83.2347183,234.144052 85.1841486,233.650299 87.3024591,233.650299 C88.8067665,233.650299 90.2675601,233.918921 91.6848837,234.456174 C93.1022074,234.993427 94.3429865,235.732778 95.4072585,236.674249 L93.9643586,238.562299 C93.0638208,237.764095 92.0302645,237.139868 90.8636588,236.689599 C89.6970531,236.23933 88.5099984,236.014199 87.3024591,236.014199 C85.6446509,236.014199 84.1250162,236.400503 82.7435094,237.173124 C81.3620026,237.945744 80.267047,238.999767 79.4586097,240.335224 C78.6501724,241.67068 78.2459598,243.131474 78.2459598,244.717648 C78.2459598,246.314056 78.655289,247.782525 79.4739597,249.123098 C80.2926304,250.463671 81.3927026,251.52281 82.7742094,252.300548 C84.1557162,253.078285 85.6753509,253.467148 87.3331591,253.467148 C88.3155639,253.467148 89.3107455,253.303416 90.3187338,252.975948 C91.3267221,252.648479 92.2605044,252.193101 93.1201086,251.609798 L93.1201086,244.978598 L95.3458585,244.978598 Z M101.255608,255.723597 L101.255608,232.391599 L103.711608,232.391599 L103.711608,255.723597 L101.255608,255.723597 Z M120.105407,253.175498 C118.7853,254.956106 116.764237,255.846397 114.042157,255.846397 C112.926718,255.846397 111.94177,255.626383 111.087282,255.186347 C110.232795,254.746312 109.572751,254.139993 109.107132,253.367373 C108.641513,252.594752 108.408707,251.732602 108.408707,250.780898 C108.408707,249.337991 108.953627,248.191869 110.043482,247.342498 C111.133338,246.493127 112.655531,246.058215 114.610107,246.037748 L120.044007,246.037748 L120.044007,245.070698 C120.044007,243.832459 119.667935,242.87821 118.915782,242.207923 C118.163628,241.537637 117.060997,241.202498 115.607857,241.202498 C113.929582,241.202498 112.1797,241.831842 110.358157,243.090548 L109.329707,241.294598 C110.506547,240.516861 111.591269,239.951475 112.583907,239.598424 C113.576545,239.245372 114.743134,239.068849 116.083707,239.068849 C118.12015,239.068849 119.688393,239.570277 120.788482,240.573149 C121.88857,241.57602 122.44884,242.977973 122.469306,244.779048 L122.500006,255.723597 L120.105407,255.723597 L120.105407,253.175498 Z M118.109907,252.722673 C119.102545,252.062619 119.757472,251.15442 120.074707,249.998048 L120.074707,248.017898 L114.917107,248.017898 C112.11316,248.017898 110.711207,248.908189 110.711207,250.688798 C110.711207,251.609802 111.056579,252.344037 111.747332,252.891523 C112.438086,253.439009 113.361635,253.712747 114.518007,253.712747 C115.919981,253.712747 117.117268,253.382726 118.109907,252.722673 L118.109907,252.722673 Z M141.44958,240.780373 C142.559902,241.921396 143.115055,243.494755 143.115055,245.500498 L143.115055,255.723597 L140.659055,255.723597 L140.659055,246.160548 C140.659055,244.697174 140.244609,243.556169 139.415705,242.737498 C138.586801,241.918828 137.440679,241.509498 135.977305,241.509498 C134.360431,241.529965 133.065927,242.023719 132.093756,242.990773 C131.121584,243.957828 130.558757,245.234424 130.405256,246.820598 L130.405256,255.723597 L127.964606,255.723597 L127.964606,239.160949 L130.405256,239.160949 L130.405256,242.798898 C131.541161,240.342886 133.679906,239.099549 136.821555,239.068849 C138.796598,239.068849 140.339258,239.639351 141.44958,240.780373 L141.44958,240.780373 Z M158.764379,239.744249 C159.833767,240.174051 160.741966,240.772695 161.489003,241.540198 L160.138203,243.274748 C158.79763,241.995575 157.155197,241.355998 155.210854,241.355998 C154.074948,241.355998 153.061858,241.611829 152.171554,242.123498 C151.28125,242.635168 150.58539,243.354052 150.083954,244.280173 C149.582518,245.206294 149.331804,246.262875 149.331804,247.449948 C149.331804,248.647254 149.582518,249.706393 150.083954,250.627398 C150.58539,251.548402 151.28125,252.272403 152.171554,252.799423 C153.061858,253.326442 154.074948,253.589948 155.210854,253.589948 C156.295593,253.589948 157.272866,253.405749 158.142704,253.037348 C159.012541,252.668946 159.744217,252.136818 160.337753,251.440948 L161.749953,252.960598 C160.992683,253.861135 160.048667,254.562112 158.917879,255.063547 C157.78709,255.564983 156.520727,255.815697 155.118754,255.815697 C153.522346,255.815697 152.105044,255.465209 150.866804,254.764222 C149.628565,254.063236 148.658966,253.078287 147.957979,251.809348 C147.256993,250.540408 146.906504,249.087289 146.906504,247.449948 C146.906504,245.812607 147.262109,244.362046 147.973329,243.098223 C148.68455,241.8344 149.674615,240.85201 150.943554,240.151024 C152.212494,239.450037 153.645146,239.099549 155.241554,239.099549 C156.520727,239.099549 157.69499,239.314446 158.764379,239.744249 L158.764379,239.744249 Z M177.898152,241.593923 C179.218259,243.256848 179.811786,245.526067 179.678752,248.401648 L166.170753,248.401648 C166.375421,250.018523 167.022673,251.302793 168.112528,252.254498 C169.202383,253.206202 170.555728,253.682048 172.172603,253.682048 C173.195941,253.682048 174.142515,253.502966 175.012352,253.144798 C175.88219,252.786629 176.644566,252.274968 177.299502,251.609798 L178.650302,253.052698 C177.852098,253.932769 176.8825,254.613278 175.741477,255.094247 C174.600455,255.575216 173.349443,255.815697 171.988403,255.815697 C170.371528,255.815697 168.938876,255.465209 167.690403,254.764222 C166.44193,254.063236 165.472332,253.078287 164.781578,251.809348 C164.090825,250.540408 163.745453,249.087289 163.745453,247.449948 C163.745453,245.812607 164.095941,244.362046 164.796928,243.098223 C165.497915,241.8344 166.477747,240.85201 167.736453,240.151024 C168.995159,239.450037 170.422695,239.099549 172.019103,239.099549 C174.618382,239.099549 176.578046,239.930999 177.898152,241.593923 L177.898152,241.593923 Z M175.864277,242.599348 C174.866522,241.66811 173.564344,241.202498 171.957703,241.202498 C170.381761,241.202498 169.06935,241.673227 168.020428,242.614698 C166.971506,243.55617 166.354954,244.814857 166.170753,246.390798 L177.483702,246.390798 C177.401835,244.79439 176.862032,243.530586 175.864277,242.599348 L175.864277,242.599348 Z" id="Glance" fill="#41C5C5"></path>
                <path d="M176.537343,63.5141575 C178.067234,63.954193 179.410345,64.552837 180.566718,65.3101074 L178.448418,69.6695071 C177.292045,68.9941037 176.056383,68.4440676 174.741393,68.0193822 C173.426403,67.5946968 172.318656,67.3823572 171.418118,67.3823572 C170.681315,67.3823572 170.092904,67.5179475 169.652868,67.7891322 C169.212833,68.0603169 168.992818,68.4568545 168.992818,68.9787571 C168.992818,69.6746272 169.333073,70.2067552 170.013593,70.575157 C170.694113,70.9435588 171.766044,71.3375382 173.229418,71.7571069 C174.764426,72.1971424 176.023113,72.6371713 177.005518,73.0772068 C177.987923,73.5172423 178.837281,74.1772856 179.553618,75.0573566 C180.269954,75.9374276 180.628117,77.1091325 180.628117,78.5725064 C180.628117,79.9949467 180.239255,81.2152594 179.461518,82.2334811 C178.68378,83.2517028 177.629758,84.0166367 176.299418,84.5283059 C174.969078,85.0399751 173.475026,85.2958059 171.817218,85.2958059 C169.995676,85.2958059 168.194627,84.981134 166.414019,84.3517809 C164.63341,83.7224278 163.083075,82.8653948 161.762969,81.7806561 L163.927319,77.4673065 C165.042758,78.4292445 166.355169,79.2197616 167.864593,79.8388813 C169.374018,80.458001 170.712012,80.7675562 171.878618,80.7675562 C172.779156,80.7675562 173.482691,80.6063828 173.989243,80.2840312 C174.495796,79.9616797 174.749068,79.4832761 174.749068,78.8488064 C174.749068,78.1324695 174.396022,77.58755 173.689918,77.2140315 C172.983815,76.840513 171.888859,76.4542085 170.405018,76.0551066 C168.900711,75.6355378 167.659932,75.2159754 166.682644,74.7964067 C165.705355,74.3768379 164.866231,73.737261 164.165244,72.8776568 C163.464257,72.0180526 163.113769,70.8872806 163.113769,69.4853071 C163.113769,68.1447338 163.47449,66.9781456 164.195944,65.9855073 C164.917397,64.9928691 165.943279,64.2228185 167.273619,63.6753325 C168.603958,63.1278465 170.138943,62.8541076 171.878618,62.8541076 C173.454559,62.8541076 175.007452,63.074122 176.537343,63.5141575 L176.537343,63.5141575 Z M198.449466,69.0631821 C199.657005,69.7846357 200.590788,70.8054004 201.250841,72.1255069 C201.910894,73.4456134 202.240916,74.9754813 202.240916,76.7151565 C202.240916,78.4138982 201.916011,79.9130664 201.266191,81.2127062 C200.616371,82.5123459 199.703055,83.5177608 198.526216,84.2289809 C197.349377,84.9402011 195.978124,85.2958059 194.412416,85.2958059 C193.327678,85.2958059 192.342729,85.0860246 191.457542,84.6664559 C190.572354,84.2468872 189.827886,83.6431266 189.224117,82.855156 L189.224117,91.2055554 L183.790217,91.2055554 L183.790217,68.1652072 L189.224117,68.1652072 L189.224117,70.406307 C189.827886,69.6285698 190.559562,69.0299259 191.419167,68.6103571 C192.278771,68.1907884 193.235578,67.9810072 194.289616,67.9810072 C195.855324,67.9810072 197.241927,68.3417286 198.449466,69.0631821 L198.449466,69.0631821 Z M195.709491,79.7544563 C196.410478,78.9255522 196.760966,77.8612963 196.760966,76.5616565 C196.760966,75.2620168 196.410478,74.2028775 195.709491,73.3842068 C195.008505,72.5655361 194.095189,72.1562069 192.969517,72.1562069 C191.884778,72.1562069 190.98937,72.5655361 190.283267,73.3842068 C189.577163,74.2028775 189.224117,75.2620168 189.224117,76.5616565 C189.224117,77.881763 189.569488,78.9511356 190.260242,79.7698063 C190.950995,80.588477 191.854078,80.9978062 192.969517,80.9978062 C194.095189,80.9978062 195.008505,80.5833604 195.709491,79.7544563 L195.709491,79.7544563 Z M220.929539,69.6925321 C222.060328,70.8744879 222.625714,72.4529636 222.625714,74.4280067 L222.625714,85.1116059 L217.191815,85.1116059 L217.191815,75.9323066 C217.191815,74.9499017 216.923192,74.1696179 216.38594,73.5914318 C215.848687,73.0132456 215.119569,72.7241568 214.198565,72.7241568 C213.15476,72.7241568 212.318193,73.1027863 211.68884,73.8600567 C211.059487,74.6173271 210.744815,75.5792508 210.744815,76.7458565 L210.744815,85.1116059 L205.310916,85.1116059 L205.310916,61.7796077 L210.744815,61.7796077 L210.744815,70.958907 C211.328118,69.9560354 212.103285,69.2038929 213.07034,68.7024571 C214.037395,68.2010213 215.160492,67.940074 216.439665,67.9196072 C218.302141,67.9196072 219.798751,68.5105762 220.929539,69.6925321 L220.929539,69.6925321 Z M240.239838,70.383282 C241.718562,71.9848066 242.457913,74.2130924 242.457913,77.0682065 C242.457913,77.5287088 242.44768,77.871522 242.427213,78.0966564 L230.515614,78.0966564 C230.791915,79.099528 231.272877,79.8746952 231.958514,80.4221812 C232.64415,80.9696673 233.493508,81.2434062 234.506613,81.2434062 C235.263884,81.2434062 235.985326,81.0975826 236.670963,80.8059312 C237.3566,80.5142798 237.985944,80.0819258 238.559013,79.5088563 L241.414113,82.3179061 C240.534042,83.2798442 239.464669,84.0166367 238.205963,84.5283059 C236.947257,85.0399751 235.555538,85.2958059 234.030763,85.2958059 C232.209221,85.2958059 230.62307,84.9402011 229.272264,84.2289809 C227.921457,83.5177608 226.877668,82.5123459 226.140864,81.2127062 C225.40406,79.9130664 225.035664,78.403665 225.035664,76.6844565 C225.035664,74.9652481 225.409177,73.4456134 226.156214,72.1255069 C226.903251,70.8054004 227.941924,69.7846357 229.272264,69.0631821 C230.602604,68.3417286 232.137588,67.9810072 233.877263,67.9810072 C236.640277,67.9810072 238.761114,68.7817575 240.239838,70.383282 L240.239838,70.383282 Z M236.310238,72.6934568 C235.711585,72.0692204 234.921068,71.7571069 233.938663,71.7571069 C233.017659,71.7571069 232.242492,72.0641038 231.613139,72.6781068 C230.983785,73.2921099 230.582131,74.1261181 230.408164,75.1801566 L237.208213,75.1801566 C237.208213,74.1465849 236.908891,73.3176932 236.310238,72.6934568 L236.310238,72.6934568 Z M253.080112,68.7485071 C254.01135,68.2163712 255.085839,67.940074 256.303612,67.9196072 L256.303612,72.8162568 C256.139878,72.7957901 255.889163,72.7855568 255.551462,72.7855568 C254.210888,72.7855568 253.115933,73.1104619 252.266562,73.7602817 C251.417191,74.4101016 250.931113,75.2927177 250.808312,76.4081565 L250.808312,85.1116059 L245.359063,85.1116059 L245.359063,68.1652072 L250.808312,68.1652072 L250.808312,71.020307 C251.391615,70.0379021 252.148874,69.2806431 253.080112,68.7485071 L253.080112,68.7485071 Z M272.566935,70.383282 C274.045659,71.9848066 274.78501,74.2130924 274.78501,77.0682065 C274.78501,77.5287088 274.774777,77.871522 274.75431,78.0966564 L262.842711,78.0966564 C263.119013,79.099528 263.599974,79.8746952 264.285611,80.4221812 C264.971248,80.9696673 265.820606,81.2434062 266.833711,81.2434062 C267.590981,81.2434062 268.312424,81.0975826 268.998061,80.8059312 C269.683697,80.5142798 270.313041,80.0819258 270.886111,79.5088563 L273.74121,82.3179061 C272.861139,83.2798442 271.791767,84.0166367 270.533061,84.5283059 C269.274354,85.0399751 267.882635,85.2958059 266.357861,85.2958059 C264.536319,85.2958059 262.950168,84.9402011 261.599361,84.2289809 C260.248555,83.5177608 259.204765,82.5123459 258.467962,81.2127062 C257.731158,79.9130664 257.362762,78.403665 257.362762,76.6844565 C257.362762,74.9652481 257.736275,73.4456134 258.483312,72.1255069 C259.230349,70.8054004 260.269021,69.7846357 261.599361,69.0631821 C262.929701,68.3417286 264.464686,67.9810072 266.204361,67.9810072 C268.967375,67.9810072 271.088211,68.7817575 272.566935,70.383282 L272.566935,70.383282 Z M268.637336,72.6934568 C268.038683,72.0692204 267.248166,71.7571069 266.265761,71.7571069 C265.344756,71.7571069 264.569589,72.0641038 263.940236,72.6781068 C263.310883,73.2921099 262.909229,74.1261181 262.735261,75.1801566 L269.535311,75.1801566 C269.535311,74.1465849 269.235989,73.3176932 268.637336,72.6934568 L268.637336,72.6934568 Z" id="Sphere" fill="#41C5C5"></path>
                <path d="M77.4242641,114.256166 L77.4242641,119.352366 L87.2943133,119.352366 L87.2943133,123.757815 L77.4242641,123.757815 L77.4242641,131.862615 L71.8215145,131.862615 L71.8215145,109.850717 L88.1385633,109.850717 L88.1385633,114.256166 L77.4242641,114.256166 Z M90.7634131,131.862615 L90.7634131,114.916216 L96.1819627,114.916216 L96.1819627,131.862615 L90.7634131,131.862615 Z M95.5602877,107.985692 C96.0975403,108.522944 96.3661626,109.211129 96.3661626,110.050267 C96.3661626,110.889404 96.0975403,111.580147 95.5602877,112.122516 C95.0230351,112.664886 94.3348503,112.936066 93.4957129,112.936066 C92.6565754,112.936066 91.970949,112.664886 91.438813,112.122516 C90.9066771,111.580147 90.6406131,110.889404 90.6406131,110.050267 C90.6406131,109.211129 90.9066771,108.522944 91.438813,107.985692 C91.970949,107.448439 92.6565754,107.179817 93.4957129,107.179817 C94.3348503,107.179817 95.0230351,107.448439 95.5602877,107.985692 L95.5602877,107.985692 Z M116.129286,116.443541 C117.260075,117.625497 117.825461,119.203973 117.825461,121.179016 L117.825461,131.862615 L112.406911,131.862615 L112.406911,122.683316 C112.406911,121.700911 112.140847,120.920627 111.608711,120.342441 C111.076576,119.764255 110.350016,119.475166 109.429012,119.475166 C108.467074,119.475166 107.676557,119.789838 107.057437,120.419191 C106.438317,121.048544 106.077596,121.874877 105.975262,122.898216 L105.975262,131.862615 L100.526012,131.862615 L100.526012,114.916216 L105.975262,114.916216 L105.975262,117.679216 C107.172568,115.704173 109.055482,114.701316 111.624061,114.670616 C113.496771,114.670616 114.998497,115.261585 116.129286,116.443541 L116.129286,116.443541 Z M138.747509,131.862615 L133.31361,131.862615 L133.31361,129.636865 C132.07537,131.274206 130.376654,132.087748 128.21741,132.077515 C126.641469,132.077515 125.257425,131.711677 124.065236,130.97999 C122.873046,130.248303 121.946939,129.222422 121.286886,127.902315 C120.626832,126.582209 120.296811,125.052341 120.296811,123.312666 C120.296811,121.593457 120.621716,120.084056 121.271536,118.784416 C121.921356,117.484776 122.834671,116.479361 124.011511,115.768141 C125.18835,115.056921 126.549369,114.701316 128.09461,114.701316 C129.210049,114.701316 130.207789,114.911097 131.08786,115.330666 C131.967931,115.750235 132.70984,116.359112 133.31361,117.157316 L133.31361,108.530617 L138.747509,108.530617 L138.747509,131.862615 Z M132.277485,126.643615 C132.968238,125.824945 133.31361,124.755572 133.31361,123.435466 C133.31361,122.135826 132.968238,121.076686 132.277485,120.258016 C131.586731,119.439345 130.673416,119.030016 129.53751,119.030016 C128.401604,119.030016 127.490847,119.434228 126.80521,120.242666 C126.119574,121.051103 125.766527,122.115359 125.74606,123.435466 C125.766527,124.755572 126.122132,125.824945 126.812885,126.643615 C127.503639,127.462286 128.411838,127.871615 129.53751,127.871615 C130.673416,127.871615 131.586731,127.462286 132.277485,126.643615 L132.277485,126.643615 Z" id="Find" fill="#41C5C5"></path>
                <path d="M375.182587,255.874315 L370.807838,260.73259 L370.807838,268.837389 L362.403713,268.837389 L362.403713,235.819542 L370.807838,235.819542 L370.807838,250.118066 L383.448562,235.819542 L393.165111,235.819542 L380.892787,249.496391 L393.947961,268.837389 L383.909061,268.837389 L375.182587,255.874315 Z M420.967796,245.708779 C422.66398,247.481712 423.512058,249.849426 423.512058,252.811991 L423.512058,268.837389 L415.384234,268.837389 L415.384234,255.068441 C415.384234,253.594833 414.985138,252.424408 414.186934,251.557128 C413.38873,250.689849 412.298891,250.256216 410.917384,250.256216 C409.474477,250.256216 408.288702,250.728224 407.360022,251.672253 C406.431343,252.616283 405.890261,253.855783 405.73676,255.390791 L405.73676,268.837389 L397.562885,268.837389 L397.562885,243.417791 L405.73676,243.417791 L405.73676,247.562291 C407.532719,244.599727 410.35709,243.095442 414.209959,243.049391 C417.019023,243.049391 419.271613,243.935845 420.967796,245.708779 L420.967796,245.708779 Z M448.344519,244.741729 C450.455154,245.808559 452.082238,247.324356 453.225819,249.289166 C454.369399,251.253976 454.941181,253.525753 454.941181,256.104565 C454.941181,258.683378 454.369399,260.955155 453.225819,262.919965 C452.082238,264.884775 450.455154,266.408247 448.344519,267.490427 C446.233884,268.572607 443.812446,269.113689 441.080132,269.113689 C438.317119,269.113689 435.891843,268.572607 433.804233,267.490427 C431.716622,266.408247 430.089539,264.884775 428.922933,262.919965 C427.756327,260.955155 427.173033,258.683378 427.173033,256.104565 C427.173033,253.525753 427.756327,251.253976 428.922933,249.289166 C430.089539,247.324356 431.716622,245.808559 433.804233,244.741729 C435.891843,243.674899 438.317119,243.141491 441.080132,243.141491 C443.812446,243.141491 446.233884,243.674899 448.344519,244.741729 L448.344519,244.741729 Z M436.97017,251.430491 C435.91869,252.658497 435.392958,254.247206 435.392958,256.196665 C435.392958,258.176825 435.91869,259.773209 436.97017,260.985865 C438.02165,262.198521 439.391624,262.80484 441.080132,262.80484 C442.75329,262.80484 444.115589,262.198521 445.167069,260.985865 C446.218549,259.773209 446.744282,258.176825 446.744282,256.196665 C446.744282,254.247206 446.218549,252.658497 445.167069,251.430491 C444.115589,250.202485 442.75329,249.588491 441.080132,249.588491 C439.391624,249.588491 438.02165,250.202485 436.97017,251.430491 L436.97017,251.430491 Z M482.386979,268.837389 L477.390554,252.719891 L472.371105,268.837389 L464.266305,268.837389 L454.987231,243.417791 L463.27623,243.417791 L468.52593,261.00889 L473.614455,243.417791 L481.396904,243.417791 L486.623579,261.00889 L491.758153,243.417791 L499.724803,243.417791 L490.445728,268.837389 L482.386979,268.837389 Z" id="Know" fill="#41C5C5"></path>
                <path d="M352.153844,192.376915 C353.555818,192.944868 354.794039,193.730268 355.868544,194.73314 L354.348894,196.65189 C353.48929,195.792286 352.488991,195.116892 351.347969,194.62569 C350.206947,194.134488 349.0378,193.88889 347.840494,193.88889 C346.203153,193.88889 344.698868,194.275195 343.327595,195.047815 C341.956321,195.820435 340.874157,196.869342 340.08107,198.194565 C339.287983,199.519788 338.891445,200.975465 338.891445,202.561639 C338.891445,204.137581 339.287983,205.590699 340.08107,206.921039 C340.874157,208.251379 341.95888,209.302843 343.33527,210.075464 C344.71166,210.848084 346.213386,211.234389 347.840494,211.234389 C349.0378,211.234389 350.20183,211.004141 351.332619,210.543639 C352.463408,210.083137 353.468823,209.433326 354.348894,208.594189 L355.899244,210.328739 C354.783805,211.372544 353.514884,212.198877 352.092444,212.807764 C350.670004,213.41665 349.211768,213.721089 347.717694,213.721089 C345.640318,213.721089 343.734378,213.224777 341.99982,212.232139 C340.265261,211.2395 338.888892,209.888714 337.87067,208.179739 C336.852449,206.470764 336.343345,204.598083 336.343345,202.561639 C336.343345,200.545663 336.857565,198.696006 337.88602,197.012615 C338.914475,195.329223 340.303636,193.993787 342.053545,193.006265 C343.803453,192.018744 345.722184,191.52499 347.809794,191.52499 C349.303868,191.52499 350.751871,191.808962 352.153844,192.376915 L352.153844,192.376915 Z M370.596868,198.025715 C371.870924,198.726702 372.866106,199.71165 373.582442,200.98059 C374.298779,202.249529 374.656942,203.687298 374.656942,205.293939 C374.656942,206.931281 374.298779,208.384399 373.582442,209.653339 C372.866106,210.922278 371.870924,211.912343 370.596868,212.623564 C369.322811,213.334784 367.877368,213.690389 366.260493,213.690389 C364.643618,213.690389 363.195616,213.334784 361.916443,212.623564 C360.63727,211.912343 359.642089,210.922278 358.930869,209.653339 C358.219648,208.384399 357.864044,206.931281 357.864044,205.293939 C357.864044,203.677065 358.219648,202.236737 358.930869,200.972915 C359.642089,199.709092 360.63727,198.726702 361.916443,198.025715 C363.195616,197.324728 364.643618,196.97424 366.260493,196.97424 C367.877368,196.97424 369.322811,197.324728 370.596868,198.025715 L370.596868,198.025715 Z M363.190493,199.98284 C362.279722,200.504742 361.573629,201.228743 361.072193,202.154864 C360.570758,203.080986 360.320043,204.137567 360.320043,205.324639 C360.320043,206.521945 360.570758,207.586201 361.072193,208.517439 C361.573629,209.448677 362.279722,210.177795 363.190493,210.704814 C364.101264,211.231833 365.124587,211.495339 366.260493,211.495339 C367.396399,211.495339 368.419722,211.231833 369.330493,210.704814 C370.241264,210.177795 370.947357,209.448677 371.448793,208.517439 C371.950228,207.586201 372.200943,206.521945 372.200943,205.324639 C372.200943,204.127333 371.950228,203.068194 371.448793,202.147189 C370.947357,201.226185 370.238706,200.504742 369.322818,199.98284 C368.40693,199.460937 367.386165,199.19999 366.260493,199.19999 C365.124587,199.19999 364.101264,199.460937 363.190493,199.98284 L363.190493,199.98284 Z M392.439916,198.655065 C393.550238,199.796087 394.105391,201.369446 394.105391,203.375189 L394.105391,213.598289 L391.649391,213.598289 L391.649391,204.035239 C391.649391,202.571865 391.234945,201.43086 390.406041,200.61219 C389.577137,199.793519 388.431015,199.38419 386.967641,199.38419 C385.350767,199.404656 384.056263,199.89841 383.084092,200.865465 C382.11192,201.832519 381.549093,203.109115 381.395592,204.695289 L381.395592,213.598289 L378.954942,213.598289 L378.954942,197.03564 L381.395592,197.03564 L381.395592,200.67359 C382.531497,198.217577 384.670243,196.97424 387.811891,196.94354 C389.786934,196.94354 391.329594,197.514042 392.439916,198.655065 L392.439916,198.655065 Z M413.054964,198.655065 C414.165287,199.796087 414.720439,201.369446 414.720439,203.375189 L414.720439,213.598289 L412.264439,213.598289 L412.264439,204.035239 C412.264439,202.571865 411.849994,201.43086 411.02109,200.61219 C410.192186,199.793519 409.046064,199.38419 407.58269,199.38419 C405.965815,199.404656 404.671312,199.89841 403.69914,200.865465 C402.726969,201.832519 402.164141,203.109115 402.01064,204.695289 L402.01064,213.598289 L399.56999,213.598289 L399.56999,197.03564 L402.01064,197.03564 L402.01064,200.67359 C403.146546,198.217577 405.285291,196.97424 408.42694,196.94354 C410.401983,196.94354 411.944642,197.514042 413.054964,198.655065 L413.054964,198.655065 Z M432.664588,199.468615 C433.984694,201.13154 434.578222,203.400758 434.445188,206.276339 L420.937189,206.276339 C421.141856,207.893214 421.789108,209.177484 422.878964,210.129189 C423.968819,211.080894 425.322164,211.556739 426.939038,211.556739 C427.962377,211.556739 428.908951,211.377657 429.778788,211.019489 C430.648626,210.66132 431.411001,210.149659 432.065938,209.484489 L433.416738,210.927389 C432.618534,211.80746 431.648935,212.48797 430.507913,212.968939 C429.366891,213.449908 428.115878,213.690389 426.754838,213.690389 C425.137964,213.690389 423.705312,213.3399 422.456839,212.638914 C421.208366,211.937927 420.238767,210.952978 419.548014,209.684039 C418.857261,208.415099 418.511889,206.961981 418.511889,205.324639 C418.511889,203.687298 418.862377,202.236737 419.563364,200.972915 C420.264351,199.709092 421.244183,198.726702 422.502889,198.025715 C423.761595,197.324728 425.189131,196.97424 426.785538,196.97424 C429.384818,196.97424 431.344481,197.80569 432.664588,199.468615 L432.664588,199.468615 Z M430.630713,200.47404 C429.632958,199.542802 428.33078,199.07719 426.724138,199.07719 C425.148197,199.07719 423.835786,199.547918 422.786864,200.48939 C421.737942,201.430861 421.12139,202.689548 420.937189,204.265489 L432.250138,204.265489 C432.168271,202.669081 431.628468,201.405278 430.630713,200.47404 L430.630713,200.47404 Z M448.851162,197.61894 C449.92055,198.048742 450.828749,198.647386 451.575786,199.41489 L450.224987,201.14944 C448.884413,199.870267 447.24198,199.23069 445.297637,199.23069 C444.161731,199.23069 443.148642,199.48652 442.258337,199.99819 C441.368033,200.509859 440.672173,201.228743 440.170737,202.154864 C439.669302,203.080986 439.418587,204.137567 439.418587,205.324639 C439.418587,206.521945 439.669302,207.581084 440.170737,208.502089 C440.672173,209.423094 441.368033,210.147095 442.258337,210.674114 C443.148642,211.201133 444.161731,211.464639 445.297637,211.464639 C446.382376,211.464639 447.359649,211.280441 448.229487,210.912039 C449.099324,210.543637 449.831,210.011509 450.424537,209.315639 L451.836736,210.835289 C451.079466,211.735827 450.135451,212.436803 449.004662,212.938239 C447.873873,213.439674 446.607511,213.690389 445.205537,213.690389 C443.609129,213.690389 442.191827,213.3399 440.953587,212.638914 C439.715348,211.937927 438.745749,210.952978 438.044763,209.684039 C437.343776,208.415099 436.993288,206.961981 436.993288,205.324639 C436.993288,203.687298 437.348892,202.236737 438.060113,200.972915 C438.771333,199.709092 439.761398,198.726702 441.030337,198.025715 C442.299277,197.324728 443.731929,196.97424 445.328337,196.97424 C446.60751,196.97424 447.781773,197.189138 448.851162,197.61894 L448.851162,197.61894 Z M461.092786,213.721089 C459.813613,213.721089 458.79029,213.329668 458.022786,212.546814 C457.255282,211.76396 456.871536,210.58458 456.871536,209.008639 L456.871536,199.55304 L454.492286,199.55304 L454.492286,197.57289 L456.871536,197.57289 L456.871536,193.19814 L459.296836,193.19814 L459.296836,197.57289 L464.546535,197.52684 L464.546535,199.55304 L459.296836,199.55304 L459.296836,208.563489 C459.296836,209.545894 459.481034,210.254545 459.849436,210.689464 C460.217838,211.124383 460.770432,211.341839 461.507236,211.341839 C462.36684,211.341839 463.246898,211.055308 464.147436,210.482239 L464.838185,212.462389 C463.64088,213.281059 462.392425,213.700622 461.092786,213.721089 L461.092786,213.721089 Z" id="Connect" fill="#41C5C5"></path>
                <path d="M187.308395,148.683742 L187.308395,152.036182 L170.266826,152.036182 L170.266826,121.219525 L173.791186,121.219525 L173.791186,148.683742 L187.308395,148.683742 Z M208.014008,130.234579 C209.797687,131.21596 211.190941,132.594888 212.193813,134.371404 C213.196685,136.147919 213.698113,138.160795 213.698113,140.410093 C213.698113,142.702371 213.196685,144.736737 212.193813,146.513253 C211.190941,148.289768 209.797687,149.675859 208.014008,150.671567 C206.23033,151.667276 204.206708,152.165122 201.943084,152.165122 C199.679459,152.165122 197.652256,151.667276 195.861414,150.671567 C194.070572,149.675859 192.677318,148.289768 191.68161,146.513253 C190.685901,144.736737 190.188055,142.702371 190.188055,140.410093 C190.188055,138.146469 190.685901,136.130011 191.68161,134.360659 C192.677318,132.591307 194.070572,131.21596 195.861414,130.234579 C197.652256,129.253197 199.679459,128.762514 201.943084,128.762514 C204.206708,128.762514 206.23033,129.253197 208.014008,130.234579 L208.014008,130.234579 Z M197.645084,132.974554 C196.370005,133.705217 195.381475,134.718819 194.679464,136.015388 C193.977454,137.311958 193.626454,138.791172 193.626454,140.453073 C193.626454,142.129301 193.977454,143.61926 194.679464,144.922993 C195.381475,146.226726 196.370005,147.247491 197.645084,147.985318 C198.920164,148.723145 200.352816,149.092052 201.943084,149.092052 C203.533352,149.092052 204.966004,148.723145 206.241084,147.985318 C207.516163,147.247491 208.504693,146.226726 209.206703,144.922993 C209.908713,143.61926 210.259713,142.129301 210.259713,140.453073 C210.259713,138.776845 209.908713,137.29405 209.206703,136.004643 C208.504693,134.715237 207.512582,133.705217 206.230339,132.974554 C204.948096,132.24389 203.519025,131.878564 201.943084,131.878564 C200.352816,131.878564 198.920164,132.24389 197.645084,132.974554 L197.645084,132.974554 Z M233.973926,129.665094 C235.47107,130.266817 236.742549,131.104918 237.788401,132.179424 L235.897281,134.607794 C234.020479,132.816951 231.721072,131.921544 228.998992,131.921544 C227.408724,131.921544 225.990398,132.279707 224.743972,132.996044 C223.497546,133.712381 222.523342,134.718819 221.821332,136.015388 C221.119322,137.311958 220.768322,138.791172 220.768322,140.453073 C220.768322,142.129301 221.119322,143.612096 221.821332,144.901503 C222.523342,146.190909 223.497546,147.204511 224.743972,147.942338 C225.990398,148.680165 227.408724,149.049072 228.998992,149.049072 C230.517626,149.049072 231.885809,148.791195 233.103581,148.275433 C234.321354,147.75967 235.3457,147.014691 236.176651,146.040473 L238.153731,148.167983 C237.093553,149.428735 235.771931,150.410102 234.188826,151.112112 C232.605722,151.814122 230.832815,152.165122 228.870052,152.165122 C226.635081,152.165122 224.650857,151.674439 222.917322,150.693057 C221.183787,149.711676 219.826349,148.332748 218.844968,146.556233 C217.863586,144.779717 217.372903,142.745351 217.372903,140.453073 C217.372903,138.160795 217.870749,136.130011 218.866458,134.360659 C219.862166,132.591307 221.248257,131.21596 223.024772,130.234579 C224.801288,129.253197 226.807001,128.762514 229.041972,128.762514 C230.832814,128.762514 232.476782,129.063371 233.973926,129.665094 L233.973926,129.665094 Z M257.49473,148.468843 C255.64658,150.961695 252.817092,152.208102 249.00618,152.208102 C247.444566,152.208102 246.065638,151.900082 244.869356,151.284032 C243.673073,150.667983 242.749012,149.819136 242.097146,148.737467 C241.445279,147.655799 241.119351,146.448789 241.119351,145.116403 C241.119351,143.096333 241.882238,141.491762 243.408036,140.302643 C244.933833,139.113524 247.064903,138.504647 249.80131,138.475993 L257.40877,138.475993 L257.40877,137.122123 C257.40877,135.388588 256.88227,134.05264 255.829255,133.114239 C254.77624,132.175837 253.232557,131.706644 251.19816,131.706644 C248.848575,131.706644 246.39874,132.587725 243.848581,134.349914 L242.408751,131.835584 C244.056326,130.746752 245.574937,129.955211 246.96463,129.460939 C248.354324,128.966667 249.987547,128.719534 251.86435,128.719534 C254.715371,128.719534 256.91091,129.421534 258.451035,130.825554 C259.991159,132.229574 260.775536,134.192308 260.804189,136.713813 L260.847169,152.036182 L257.49473,152.036182 L257.49473,148.468843 Z M254.70103,147.834888 C256.090723,146.910813 257.007621,145.639334 257.45175,144.020413 L257.45175,141.248203 L250.23111,141.248203 C246.305584,141.248203 244.342851,142.49461 244.342851,144.987463 C244.342851,146.276869 244.826371,147.304797 245.793425,148.071278 C246.76048,148.837758 248.053449,149.220992 249.67237,149.220992 C251.635133,149.220992 253.311336,148.758962 254.70103,147.834888 L254.70103,147.834888 Z M268.712509,152.036182 L268.712509,119.371385 L272.150908,119.371385 L272.150908,152.036182 L268.712509,152.036182 Z" id="Local" fill="#41C5C5"></path>
                <path d="M370.886716,84.8661368 C375.270698,86.4871047 378.650734,88.7895815 381.026925,91.7736362 C383.403117,94.7576909 384.591195,98.2574557 384.591195,102.273035 C384.591195,106.435976 383.384697,110.073889 380.971665,113.186885 C378.558633,116.29988 375.233857,118.464208 370.997236,119.679934 C375.97066,120.674619 379.930921,122.977096 382.878135,126.587434 C385.82535,130.197771 387.298935,134.581687 387.298935,139.739313 C387.298935,144.196974 386.055597,148.083555 383.568885,151.399172 C381.082173,154.714788 377.554778,157.256722 372.986596,159.025051 C368.418413,160.79338 363.039828,161.677531 356.850677,161.677531 L318.0029,161.677531 L318.0029,82.4346969 L355.469177,82.4346969 C361.363606,82.4346969 366.502734,83.2451688 370.886716,84.8661368 L370.886716,84.8661368 Z M338.062279,114.153935 L354.363977,114.153935 C357.311192,114.153935 359.650508,113.417142 361.381997,111.943535 C363.113485,110.469927 363.979217,108.443748 363.979217,105.864935 C363.979217,103.359803 363.113485,101.398093 361.381997,99.9797456 C359.650508,98.5613986 357.311192,97.8522358 354.363977,97.8522358 L338.062279,97.8522358 L338.062279,114.153935 Z M338.062279,146.149472 L354.363977,146.149472 C358.121676,146.149472 361.078056,145.35742 363.233207,143.773292 C365.388357,142.189164 366.465916,140.015626 366.465916,137.252613 C366.465916,134.60012 365.388357,132.500261 363.233207,130.952973 C361.078056,129.405686 358.121676,128.632053 354.363977,128.632053 L338.062279,128.632053 L338.062279,146.149472 Z M448.44412,108.655565 C453.767526,114.421053 456.429189,122.442882 456.429189,132.721293 C456.429189,134.379101 456.39235,135.613229 456.318669,136.423713 L413.436913,136.423713 C414.431598,140.034051 416.16306,142.824652 418.631352,144.795602 C421.099645,146.766552 424.157334,147.752012 427.804512,147.752012 C430.530685,147.752012 433.127879,147.227047 435.596171,146.177102 C438.064463,145.127157 440.3301,143.570683 442.393151,141.507632 L452.67151,151.620212 C449.503254,155.083189 445.653513,157.735642 441.122171,159.577651 C436.590828,161.41966 431.580639,162.340651 426.091452,162.340651 C419.533899,162.340651 413.823757,161.060474 408.960853,158.500081 C404.097949,155.939689 400.340307,152.320195 397.687814,147.641492 C395.035321,142.962789 393.709094,137.528944 393.709094,131.339793 C393.709094,125.150643 395.053741,119.679958 397.743074,114.927574 C400.432407,110.175191 404.17163,106.500438 408.960853,103.903205 C413.750077,101.305973 419.276021,100.007376 425.538852,100.007376 C435.485701,100.007376 443.120714,102.890077 448.44412,108.655565 L448.44412,108.655565 Z M434.297561,116.972194 C432.142411,114.724943 429.296549,113.601335 425.759892,113.601335 C422.444275,113.601335 419.653674,114.706523 417.388002,116.916934 C415.122331,119.127345 413.676376,122.129775 413.050093,125.924314 L437.530271,125.924314 C437.530271,122.203455 436.452712,119.219445 434.297561,116.972194 L434.297561,116.972194 Z" id="Be" fill="#41C5C5"></path>
                <path d="M30.9910158,168.080386 C34.0507975,168.960457 36.7370204,170.157745 39.0497652,171.672286 L34.8131655,180.391086 C32.5004208,179.040279 30.0290957,177.940207 27.399116,177.090836 C24.7691364,176.241465 22.5536421,175.816786 20.7525666,175.816786 C19.2789593,175.816786 18.1021378,176.087966 17.2220668,176.630336 C16.3419958,177.172705 15.9019669,177.96578 15.9019669,179.009586 C15.9019669,180.401326 16.5824767,181.465582 17.9435168,182.202385 C19.3045568,182.939189 21.4484185,183.727148 24.3751663,184.566285 C27.4451814,185.446356 29.962556,186.326414 31.9273657,187.206485 C33.8921754,188.086556 35.5908916,189.406643 37.0235653,191.166785 C38.456239,192.926927 39.1725651,195.270336 39.1725651,198.197084 C39.1725651,201.041965 38.3948396,203.48259 36.8393653,205.519034 C35.283891,207.555477 33.1758456,209.085345 30.5151658,210.108683 C27.854486,211.132022 24.8663828,211.643683 21.5507665,211.643683 C17.9076819,211.643683 14.3055849,211.014339 10.7443673,209.755633 C7.1831498,208.496927 4.08248104,206.782861 1.44226804,204.613384 L5.77096771,195.986684 C8.00184536,197.91056 10.6266689,199.491595 13.6455171,200.729834 C16.6643653,201.968073 19.340355,202.587184 21.6735665,202.587184 C23.474642,202.587184 24.8817112,202.264837 25.8948162,201.620134 C26.9079212,200.975431 27.414466,200.018624 27.414466,198.749684 C27.414466,197.31701 26.7083732,196.227171 25.2961662,195.480134 C23.8839593,194.733097 21.694048,193.960488 18.7263667,193.162285 C15.7177519,192.323147 13.2361936,191.484022 11.2816173,190.644885 C9.327041,189.805747 7.64879124,188.526593 6.24681767,186.807385 C4.8448441,185.088177 4.14386784,182.826633 4.14386784,180.022686 C4.14386784,177.341539 4.86531057,175.008363 6.30821767,173.023086 C7.75112477,171.03781 9.80288743,169.497708 12.4635672,168.402736 C15.124247,167.307764 18.194216,166.760287 21.6735665,166.760287 C24.8254487,166.760287 27.931234,167.200315 30.9910158,168.080386 L30.9910158,168.080386 Z M76.7340123,180.437136 C78.9955901,182.801047 80.126362,185.957999 80.126362,189.908085 L80.126362,211.275283 L69.2585628,211.275283 L69.2585628,192.916685 C69.2585628,190.951875 68.7213182,189.391307 67.646813,188.234935 C66.5723077,187.078563 65.1140724,186.500385 63.2720633,186.500385 C61.184453,186.500385 59.5113199,187.257644 58.2526137,188.772185 C56.9939075,190.286726 56.3645638,192.210573 56.3645638,194.543784 L56.3645638,211.275283 L45.4967647,211.275283 L45.4967647,164.611287 L56.3645638,164.611287 L56.3645638,182.969885 C57.5311696,180.964142 59.0815039,179.459857 61.0156135,178.456986 C62.949723,177.454114 65.195917,176.932219 67.754263,176.891286 C71.4792146,176.891286 74.4724345,178.073224 76.7340123,180.437136 L76.7340123,180.437136 Z M113.834959,180.130136 C116.413772,182.289379 117.723626,185.292833 117.764559,189.140585 L117.764559,211.275283 L107.14236,211.275283 L107.14236,207.376383 C106.057621,208.809057 104.635202,209.898896 102.87506,210.645933 C101.114918,211.39297 99.0785054,211.766483 96.7657607,211.766483 C93.2045432,211.766483 90.375055,210.784093 88.2772114,208.819283 C86.1793677,206.854474 85.1304616,204.296166 85.1304616,201.144284 C85.1304616,197.910535 86.2510003,195.403393 88.4921114,193.622784 C90.7332224,191.842176 93.9515733,190.931418 98.1472606,190.890485 L107.08096,190.890485 L107.08096,190.399285 C107.08096,188.72101 106.528365,187.411156 105.42316,186.469685 C104.317955,185.528214 102.670405,185.057485 100.48046,185.057485 C99.0477867,185.057485 97.4411696,185.297966 95.6605608,185.778935 C93.879952,186.259904 92.1096032,186.96088 90.3494612,187.881885 L87.2794615,180.728785 C90.0424751,179.439379 92.6724152,178.477455 95.1693608,177.842986 C97.6663065,177.208516 100.27578,176.891286 102.99786,176.891286 C107.643816,176.891286 111.256147,177.970892 113.834959,180.130136 L113.834959,180.130136 Z M104.64031,203.139784 C105.93995,202.28018 106.753492,201.154524 107.08096,199.762784 L107.08096,196.754184 L100.23486,196.754184 C98.5975191,196.754184 97.3695314,197.045831 96.5508607,197.629134 C95.73219,198.212437 95.3228608,199.138544 95.3228608,200.407484 C95.3228608,201.655957 95.7424233,202.638347 96.5815607,203.354684 C97.4206982,204.071021 98.5975197,204.429184 100.11206,204.429184 C101.831269,204.429184 103.34067,203.999388 104.64031,203.139784 L104.64031,203.139784 Z M140.912357,178.549086 C142.774833,177.484814 144.923812,176.932219 147.359357,176.891286 L147.359357,186.684585 C147.031889,186.643651 146.53046,186.623185 145.855057,186.623185 C143.17391,186.623185 140.983999,187.272995 139.285257,188.572635 C137.586516,189.872275 136.614359,191.637507 136.368758,193.868384 L136.368758,211.275283 L125.470259,211.275283 L125.470259,177.382486 L136.368758,177.382486 L136.368758,183.092685 C137.535363,181.127876 139.049881,179.613358 140.912357,178.549086 L140.912357,178.549086 Z M179.886004,181.818635 C182.843452,185.021685 184.322154,189.478256 184.322154,195.188484 C184.322154,196.109489 184.301688,196.795115 184.260754,197.245384 L160.437556,197.245384 C160.990159,199.251127 161.952082,200.801462 163.323356,201.896434 C164.694629,202.991406 166.393345,203.538884 168.419555,203.538884 C169.934096,203.538884 171.376981,203.247237 172.748255,202.663934 C174.119528,202.080631 175.378216,201.215923 176.524355,200.069784 L182.234554,205.687884 C180.474412,207.61176 178.335667,209.085345 175.818255,210.108683 C173.300842,211.132022 170.517404,211.643683 167.467855,211.643683 C163.824771,211.643683 160.652469,210.932474 157.950856,209.510033 C155.249243,208.087593 153.161664,206.076763 151.688057,203.477484 C150.214449,200.878204 149.477657,197.859401 149.477657,194.420984 C149.477657,190.982568 150.224682,187.943298 151.718757,185.303085 C153.212831,182.662872 155.290176,180.621343 157.950856,179.178436 C160.611536,177.735528 163.681505,177.014086 167.160855,177.014086 C172.686883,177.014086 176.928556,178.615586 179.886004,181.818635 L179.886004,181.818635 Z M172.026805,186.438985 C170.829499,185.190512 169.248465,184.566285 167.283655,184.566285 C165.441646,184.566285 163.891312,185.180279 162.632606,186.408285 C161.373899,187.636291 160.570591,189.304308 160.222656,191.412385 L173.822755,191.412385 C173.822755,189.345241 173.224111,187.687458 172.026805,186.438985 L172.026805,186.438985 Z" id="Share" fill="#41C5C5"></path>
                <path d="M57.3742637,290.72375 L57.3742637,305.597899 L93.072221,305.597899 L93.072221,320.576428 L57.3742637,320.576428 L57.3742637,335.607147 L98.0824606,335.607147 L98.0824606,350.585676 L38.3249152,350.585676 L38.3249152,275.745222 L96.9342807,275.745222 L96.9342807,290.72375 L57.3742637,290.72375 Z M145.627547,292.96792 L165.825075,292.96792 L147.558577,320.993948 L167.129825,350.585676 L145.836307,350.585676 L135.398308,332.527937 L123.603369,350.585676 L103.30146,350.585676 L122.977089,321.098328 L104.60621,292.96792 L125.743158,292.96792 L135.398308,309.564339 L145.627547,292.96792 Z M225.426051,296.021035 C229.531684,298.473977 232.706544,301.944577 234.950725,306.432939 C237.194906,310.921301 238.31698,316.122852 238.31698,322.037748 C238.31698,327.81347 237.212303,332.910642 235.002915,337.329417 C232.793528,341.748192 229.688254,345.166603 225.687001,347.584751 C221.685748,350.0029 217.023488,351.211956 211.700082,351.211956 C208.01197,351.211956 204.663146,350.4987 201.653508,349.072166 C198.64387,347.645632 196.11268,345.592846 194.059863,342.913746 L194.059863,371.305104 L175.584605,371.305104 L175.584605,292.96792 L194.059863,292.96792 L194.059863,300.58766 C196.11268,297.943353 198.600378,295.907964 201.523033,294.48143 C204.445687,293.054897 207.698831,292.34164 211.282562,292.34164 C216.605968,292.34164 221.320417,293.568093 225.426051,296.021035 L225.426051,296.021035 Z M216.110137,332.371367 C218.493492,329.553093 219.685151,325.934623 219.685151,321.515848 C219.685151,317.097073 218.493492,313.495999 216.110137,310.712519 C213.726781,307.929039 210.621508,306.537319 206.794222,306.537319 C203.106111,306.537319 200.061725,307.929039 197.660973,310.712519 C195.260221,313.495999 194.059863,317.097073 194.059863,321.515848 C194.059863,326.00421 195.234126,329.640077 197.582688,332.423557 C199.93125,335.207038 203.00173,336.598757 206.794222,336.598757 C210.621508,336.598757 213.726781,335.189641 216.110137,332.371367 L216.110137,332.371367 Z M274.432457,294.95114 C277.598666,293.141878 281.251929,292.202467 285.392356,292.13288 L285.392356,308.781489 C284.83566,308.711902 283.983232,308.677109 282.835046,308.677109 C278.277097,308.677109 274.554248,309.781786 271.666387,311.991174 C268.778526,314.200561 267.12586,317.201456 266.708338,320.993948 L266.708338,350.585676 L248.180889,350.585676 L248.180889,292.96792 L266.708338,292.96792 L266.708338,302.67526 C268.691567,299.335083 271.266248,296.760402 274.432457,294.95114 L274.432457,294.95114 Z M340.687657,300.509375 C345.715318,305.954558 348.229111,313.53073 348.229111,323.238118 C348.229111,324.803826 348.194318,325.969391 348.124731,326.734848 L307.625295,326.734848 C308.564719,330.144611 310.199989,332.78018 312.531154,334.641632 C314.862319,336.503085 317.750137,337.433797 321.194693,337.433797 C323.769413,337.433797 326.222318,336.937997 328.553483,335.946382 C330.884648,334.954767 333.024416,333.484764 334.972852,331.536327 L344.680192,341.087097 C341.68795,344.357686 338.052084,346.862781 333.772483,348.602456 C329.492881,350.342131 324.761036,351.211956 319.576804,351.211956 C313.38356,351.211956 307.990647,350.0029 303.397905,347.584751 C298.805162,345.166603 295.256278,341.748192 292.751146,337.329417 C290.246013,332.910642 288.993466,327.778677 288.993466,321.933368 C288.993466,316.088059 290.26341,310.921301 292.803336,306.432939 C295.343261,301.944577 298.874749,298.473977 303.397905,296.021035 C307.92106,293.568093 313.140008,292.34164 319.054904,292.34164 C328.44915,292.34164 335.659996,295.064191 340.687657,300.509375 L340.687657,300.509375 Z M327.327018,308.363969 C325.291598,306.241565 322.60384,305.180379 319.263664,305.180379 C316.132248,305.180379 313.49668,306.224169 311.356879,308.311779 C309.217079,310.399389 307.851454,313.235018 307.259965,316.818748 L330.380133,316.818748 C330.380133,313.304605 329.362438,310.486373 327.327018,308.363969 L327.327018,308.363969 Z M391.024908,293.829055 C395.095748,294.959844 398.90558,296.56902 402.454517,298.65663 L396.139528,310.608139 C389.006859,306.74606 382.95288,304.815049 377.977409,304.815049 C376.272527,304.815049 374.906903,305.154281 373.880494,305.832754 C372.854086,306.511228 372.34089,307.494129 372.34089,308.781489 C372.34089,310.138436 373.123732,311.225716 374.689439,312.043364 C376.255147,312.861011 378.812431,313.774327 382.361369,314.783339 C386.432209,315.931524 389.824525,317.088391 392.538418,318.253973 C395.252311,319.419556 397.600838,321.193998 399.584067,323.577353 C401.567297,325.960708 402.558897,329.048585 402.558897,332.841077 C402.558897,338.616799 400.31475,343.139887 395.826388,346.410476 C391.338026,349.681066 385.492805,351.316336 378.290549,351.316336 C373.454252,351.316336 368.791992,350.620476 364.30363,349.228736 C359.815268,347.836996 355.866265,345.836399 352.456501,343.226886 L358.301781,331.431947 C361.502783,333.728319 364.903797,335.502761 368.504925,336.755327 C372.106053,338.007893 375.524463,338.634167 378.760259,338.634167 C380.673902,338.634167 382.196095,338.294935 383.326884,337.616462 C384.457673,336.937989 385.023059,335.955087 385.023059,334.667727 C385.023059,333.171606 384.205423,331.997343 382.570129,331.144902 C380.934834,330.292462 378.37755,329.361749 374.898199,328.352738 C370.896946,327.204552 367.582915,326.047685 364.956005,324.882103 C362.329096,323.71652 360.067552,321.976871 358.171306,319.663103 C356.27506,317.349335 355.326951,314.296251 355.326951,310.503759 C355.326951,304.728037 357.501512,300.222346 361.8507,296.98655 C366.199888,293.750754 371.836352,292.13288 378.760259,292.13288 C382.865893,292.13288 386.954068,292.698266 391.024908,293.829055 L391.024908,293.829055 Z M445.824404,293.829055 C449.895244,294.959844 453.705076,296.56902 457.254013,298.65663 L450.939024,310.608139 C443.806355,306.74606 437.752376,304.815049 432.776905,304.815049 C431.072023,304.815049 429.706399,305.154281 428.67999,305.832754 C427.653582,306.511228 427.140385,307.494129 427.140385,308.781489 C427.140385,310.138436 427.923227,311.225716 429.488935,312.043364 C431.054643,312.861011 433.611927,313.774327 437.160865,314.783339 C441.231705,315.931524 444.62402,317.088391 447.337914,318.253973 C450.051807,319.419556 452.400333,321.193998 454.383563,323.577353 C456.366793,325.960708 457.358393,329.048585 457.358393,332.841077 C457.358393,338.616799 455.114246,343.139887 450.625884,346.410476 C446.137521,349.681066 440.2923,351.316336 433.090045,351.316336 C428.253748,351.316336 423.591488,350.620476 419.103126,349.228736 C414.614764,347.836996 410.66576,345.836399 407.255997,343.226886 L413.101276,331.431947 C416.302279,333.728319 419.703293,335.502761 423.304421,336.755327 C426.905548,338.007893 430.323959,338.634167 433.559755,338.634167 C435.473398,338.634167 436.995591,338.294935 438.126379,337.616462 C439.257168,336.937989 439.822554,335.955087 439.822554,334.667727 C439.822554,333.171606 439.004919,331.997343 437.369625,331.144902 C435.73433,330.292462 433.177046,329.361749 429.697695,328.352738 C425.696442,327.204552 422.382411,326.047685 419.755501,324.882103 C417.128591,323.71652 414.867047,321.976871 412.970801,319.663103 C411.074555,317.349335 410.126447,314.296251 410.126447,310.503759 C410.126447,304.728037 412.301008,300.222346 416.650196,296.98655 C420.999384,293.750754 426.635847,292.13288 433.559755,292.13288 C437.665388,292.13288 441.753564,292.698266 445.824404,293.829055 L445.824404,293.829055 Z" id="Express" fill="#41C5C5" opacity="0.8"></path>
                <g id="Brand" transform="translate(202.786164, 173.424721)" fill="#FFFFFF">
                    <path d="M47.1698113,58.5436948 C42.5343972,61.2432277 37.1447515,62.7895396 31.3939547,62.7895396 C14.0555523,62.7895396 0,48.7336224 0,31.3947698 C0,14.0559172 14.0555523,0 31.3939547,0 C37.1447515,0 42.5343972,1.54631183 47.1698113,4.24584481 C51.8052302,1.54631048 57.1948737,0 62.9456679,0 C80.2840704,0 94.3396226,14.0559172 94.3396226,31.3947698 C94.3396226,48.7336224 80.2840704,62.7895396 62.9456679,62.7895396 C57.1948737,62.7895396 51.8052302,61.2432291 47.1698174,58.5436983 Z M35.4128724,46.4913131 C34.130548,46.8318189 32.7834413,47.0132733 31.3939547,47.0132733 C22.7683173,47.0132733 15.7758566,40.0206311 15.7758566,31.3947698 C15.7758566,22.7689085 22.7683173,15.7762662 31.3939547,15.7762662 C32.7834413,15.7762662 34.130548,15.9577207 35.4128724,16.2982265 C32.951639,20.7776776 31.5517133,25.9227344 31.5517133,31.3947698 C31.5517133,36.8668052 32.951639,42.011862 35.4128724,46.4913131 Z M62.9456679,47.0132733 C71.5713053,47.0132733 78.563766,40.0206311 78.563766,31.3947698 C78.563766,22.7689085 71.5713053,15.7762662 62.9456679,15.7762662 C54.3200306,15.7762662 47.3275699,22.7689085 47.3275699,31.3947698 C47.3275699,40.0206311 54.3200306,47.0132733 62.9456679,47.0132733 Z" id="Oval-3"></path>
                </g>
                <path d="M216.690729,269.059272 L216.690729,271.214412 L205.735434,271.214412 L205.735434,251.403703 L208.001094,251.403703 L208.001094,269.059272 L216.690729,269.059272 Z M220.047773,271.214412 L220.047773,256.308028 L222.216728,256.308028 L222.216728,271.214412 L220.047773,271.214412 Z M222.147653,250.940901 C222.423954,251.231017 222.562103,251.592506 222.562103,252.025378 C222.562103,252.45825 222.423954,252.822042 222.147653,253.116763 C221.871352,253.411485 221.52598,253.558843 221.111528,253.558843 C220.697076,253.558843 220.354007,253.413787 220.082311,253.123671 C219.810614,252.833554 219.674768,252.46746 219.674768,252.025378 C219.674768,251.592506 219.810614,251.231017 220.082311,250.940901 C220.354007,250.650784 220.697076,250.505728 221.111528,250.505728 C221.52598,250.505728 221.871352,250.650784 222.147653,250.940901 L222.147653,250.940901 Z M230.920177,271.214412 L225.007358,256.308028 L227.355908,256.308028 L232.108267,268.921122 L236.832997,256.308028 L239.071027,256.308028 L233.213467,271.214412 L230.920177,271.214412 Z M252.416316,258.497705 C253.604412,259.994338 254.138586,262.036635 254.018856,264.624657 L241.861657,264.624657 C242.045858,266.079845 242.628384,267.235688 243.609254,268.092222 C244.590124,268.948756 245.808134,269.377017 247.263321,269.377017 C248.184326,269.377017 249.036242,269.215844 249.819096,268.893492 C250.60195,268.57114 251.288088,268.110645 251.877531,267.511992 L253.093251,268.810602 C252.374867,269.602666 251.502229,270.215125 250.475308,270.647997 C249.448388,271.080869 248.322477,271.297302 247.097541,271.297302 C245.642354,271.297302 244.352967,270.981863 243.229342,270.350974 C242.105716,269.720086 241.233077,268.833633 240.611399,267.691587 C239.989721,266.549541 239.678887,265.241735 239.678887,263.768127 C239.678887,262.29452 239.994326,260.989016 240.625214,259.851575 C241.256102,258.714135 242.137951,257.829984 243.270787,257.199095 C244.403622,256.568207 245.688404,256.252768 247.125171,256.252768 C249.464523,256.252768 251.22822,257.001073 252.416316,258.497705 L252.416316,258.497705 Z M250.585828,259.402588 C249.687849,258.564474 248.515888,258.145423 247.069911,258.145423 C245.651564,258.145423 244.470394,258.569079 243.526364,259.416403 C242.582334,260.263727 242.027437,261.396546 241.861657,262.814892 L252.043311,262.814892 C251.96963,261.378125 251.483808,260.240702 250.585828,259.402588 L250.585828,259.402588 Z" id="Live" fill="#41C5C5"></path>
                <path d="M175.158697,383.336531 L175.158697,407.292448 L172.079724,407.292448 L172.079724,383.336531 L163.330933,383.336531 L163.330933,380.370203 L183.963811,380.370203 L183.963811,383.336531 L175.158697,383.336531 Z M204.718721,389.015735 C206.076731,390.411293 206.755725,392.335633 206.755725,394.788811 L206.755725,407.292448 L203.751849,407.292448 L203.751849,395.596103 C203.751849,393.806284 203.244949,392.410747 202.231136,391.409449 C201.217323,390.408152 199.815527,389.907511 198.025709,389.907511 C195.897952,389.932544 194.227062,390.624054 193.012989,391.982063 C191.798916,393.340073 191.191889,395.126736 191.191889,397.342106 L191.191889,407.292448 L188.188012,407.292448 L188.188012,378.755619 L191.191889,378.755619 L191.191889,391.559643 C192.518608,388.505687 195.140716,386.959957 199.058291,386.922409 C201.473921,386.922409 203.360712,387.620177 204.718721,389.015735 L204.718721,389.015735 Z M226.966183,388.245992 C228.524452,389.103353 229.741636,390.30802 230.617771,391.860031 C231.493906,393.412042 231.931967,395.170544 231.931967,397.135589 C231.931967,399.138184 231.493906,400.91546 230.617771,402.467471 C229.741636,404.019481 228.524452,405.230407 226.966183,406.100284 C225.407914,406.970161 223.640025,407.405093 221.662463,407.405093 C219.684901,407.405093 217.913883,406.970161 216.349356,406.100284 C214.784829,405.230407 213.567646,404.019481 212.697769,402.467471 C211.827892,400.91546 211.39296,399.138184 211.39296,397.135589 C211.39296,395.158027 211.827892,393.396396 212.697769,391.850644 C213.567646,390.304891 214.784829,389.103353 216.349356,388.245992 C217.913883,387.388631 219.684901,386.959957 221.662463,386.959957 C223.640025,386.959957 225.407914,387.388631 226.966183,388.245992 L226.966183,388.245992 Z M217.907617,390.639706 C216.793674,391.278033 215.930068,392.163542 215.316774,393.29626 C214.703479,394.428977 214.396837,395.721257 214.396837,397.173138 C214.396837,398.637535 214.703479,399.939202 215.316774,401.078178 C215.930068,402.217153 216.793674,403.10892 217.907617,403.753505 C219.021561,404.39809 220.273163,404.720378 221.662463,404.720378 C223.051763,404.720378 224.303366,404.39809 225.417309,403.753505 C226.531252,403.10892 227.394858,402.217153 228.008153,401.078178 C228.621447,399.939202 228.92809,398.637535 228.92809,397.173138 C228.92809,395.708741 228.621447,394.413332 228.008153,393.286872 C227.394858,392.160413 226.528123,391.278033 225.407922,390.639706 C224.287721,390.001379 223.039247,389.68222 221.662463,389.68222 C220.273163,389.68222 219.021561,390.001379 217.907617,390.639706 L217.907617,390.639706 Z M254.742655,407.292448 L251.757553,407.292448 L251.757553,402.711536 C250.455867,405.790525 247.890081,407.355028 244.060119,407.405093 C241.70707,407.405093 239.857827,406.701066 238.512334,405.292992 C237.166841,403.884918 236.494104,401.960579 236.494104,399.519917 L236.494104,387.035054 L239.479207,387.035054 L239.479207,398.712625 C239.479207,400.502444 239.979848,401.897981 240.981145,402.899278 C241.982443,403.900575 243.352948,404.401216 245.092702,404.401216 C247.170393,404.376184 248.800606,403.678415 249.983388,402.30789 C251.166171,400.937364 251.757553,399.163217 251.757553,396.985396 L251.757553,387.035054 L254.742655,387.035054 L254.742655,407.292448 Z M279.71238,405.17096 C279.71238,407.123489 279.286835,408.828798 278.435733,410.286937 C277.58463,411.745076 276.392479,412.865261 274.859242,413.647524 C273.326006,414.429788 271.545601,414.820913 269.517974,414.820913 C266.514082,414.795881 263.74804,413.825889 261.219765,411.910908 L262.590283,409.601678 C263.616613,410.45278 264.680475,411.087969 265.781902,411.507262 C266.883329,411.926555 268.091126,412.148715 269.405329,412.173747 C271.608182,412.173747 273.376071,411.544817 274.709048,410.286937 C276.042025,409.029057 276.708504,407.348781 276.708504,405.246057 L276.708504,402.185857 C275.995079,403.550125 274.996926,404.595213 273.714014,405.321153 C272.431102,406.047094 270.944824,406.410059 269.255135,406.410059 C267.465316,406.410059 265.869522,405.993901 264.467706,405.161572 C263.06589,404.329244 261.973867,403.168383 261.191603,401.678953 C260.40934,400.189523 260.018214,398.49986 260.018214,396.609911 C260.018214,394.732479 260.403082,393.064718 261.172829,391.606579 C261.942576,390.14844 263.018955,389.003223 264.401996,388.170895 C265.785038,387.338567 267.371445,386.922409 269.161264,386.922409 C270.875985,386.922409 272.374779,387.285373 273.657691,388.011314 C274.940604,388.737254 275.957531,389.782343 276.708504,391.14661 L276.708504,387.035054 L279.71238,387.035054 L279.71238,405.17096 Z M273.366691,402.946213 C274.418053,402.326661 275.237853,401.472442 275.826115,400.383531 C276.414377,399.29462 276.708504,398.074308 276.708504,396.722556 C276.708504,395.333256 276.414377,394.09417 275.826115,393.005259 C275.237853,391.916348 274.418053,391.065258 273.366691,390.451964 C272.315329,389.838669 271.120048,389.532027 269.780813,389.532027 C268.454094,389.532027 267.265072,389.838669 266.21371,390.451964 C265.162347,391.065258 264.33629,391.916348 263.735511,393.005259 C263.134733,394.09417 262.834348,395.333256 262.834348,396.722556 C262.834348,398.086824 263.134733,399.310266 263.735511,400.392918 C264.33629,401.475571 265.162347,402.326661 266.21371,402.946213 C267.265072,403.565766 268.454094,403.875538 269.780813,403.875538 C271.120048,403.875538 272.315329,403.565766 273.366691,402.946213 L273.366691,402.946213 Z M303.227103,389.015735 C304.585112,390.411293 305.264107,392.335633 305.264107,394.788811 L305.264107,407.292448 L302.26023,407.292448 L302.26023,395.596103 C302.26023,393.806284 301.753331,392.410747 300.739517,391.409449 C299.725704,390.408152 298.323909,389.907511 296.53409,389.907511 C294.406333,389.932544 292.735444,390.624054 291.521371,391.982063 C290.307298,393.340073 289.70027,395.126736 289.70027,397.342106 L289.70027,407.292448 L286.696394,407.292448 L286.696394,378.755619 L289.70027,378.755619 L289.70027,391.559643 C291.026989,388.505687 293.649097,386.959957 297.566673,386.922409 C299.982302,386.922409 301.869093,387.620177 303.227103,389.015735 L303.227103,389.015735 Z M317.824066,407.442641 C316.259539,407.442641 315.007936,406.963903 314.06922,406.006413 C313.130504,405.048922 312.661153,403.60645 312.661153,401.678953 L312.661153,390.114028 L309.751147,390.114028 L309.751147,387.692152 L312.661153,387.692152 L312.661153,382.341497 L315.627481,382.341497 L315.627481,387.692152 L322.048268,387.635829 L322.048268,390.114028 L315.627481,390.114028 L315.627481,401.1345 C315.627481,402.336057 315.85277,403.202792 316.303353,403.734731 C316.753937,404.26667 317.429803,404.532636 318.33097,404.532636 C319.382332,404.532636 320.458711,404.182187 321.560138,403.481279 L322.404978,405.903155 C320.940581,406.904452 319.413625,407.417609 317.824066,407.442641 L317.824066,407.442641 Z M335.809778,387.401152 C336.936237,387.720315 337.918745,388.174021 338.757332,388.762283 L337.612104,391.14661 C336.823582,390.633445 335.941202,390.229804 334.964937,389.935672 C333.988673,389.641541 333.037454,389.494478 332.111254,389.494478 C330.909698,389.494478 329.942835,389.716638 329.210636,390.160963 C328.478437,390.605289 328.112344,391.278025 328.112344,392.179193 C328.112344,392.792487 328.318858,393.305645 328.731893,393.71868 C329.144928,394.131715 329.651827,394.466519 330.252606,394.723101 C330.853384,394.979683 331.691958,395.258165 332.768352,395.558554 C334.182685,395.971589 335.33103,396.384618 336.213424,396.797653 C337.095817,397.210688 337.849907,397.808329 338.475718,398.590592 C339.101529,399.372856 339.41443,400.389783 339.41443,401.641404 C339.41443,403.543869 338.704145,404.980083 337.283555,405.95009 C335.862964,406.920097 334.101333,407.405093 331.998609,407.405093 C330.534212,407.405093 329.110514,407.154772 327.727472,406.654124 C326.34443,406.153475 325.177311,405.458836 324.226078,404.570184 L325.39008,402.298503 C326.241183,403.087024 327.273755,403.712825 328.487828,404.175925 C329.701901,404.639025 330.909698,404.870572 332.111254,404.870572 C333.387908,404.870572 334.429868,404.620251 335.237164,404.119603 C336.04446,403.618954 336.448101,402.880508 336.448101,401.904244 C336.448101,400.927979 336.060105,400.205178 335.284099,399.73582 C334.508094,399.266462 333.312813,398.80024 331.698221,398.33714 C330.283889,397.899073 329.160576,397.489173 328.328247,397.107428 C327.495919,396.725684 326.776247,396.156204 326.169211,395.398973 C325.562174,394.641742 325.258661,393.656105 325.258661,392.442032 C325.258661,390.602148 325.925139,389.222256 327.258116,388.302315 C328.591093,387.382373 330.27137,386.922409 332.298997,386.922409 C333.51307,386.922409 334.683318,387.081988 335.809778,387.401152 L335.809778,387.401152 Z" id="Thoughts" fill="#31C0C0"></path>
                <path d="M256.749289,18.5821155 L256.749289,27.9091526 L271.415717,27.9091526 L271.415717,32.7529038 L256.749289,32.7529038 L256.749289,46 L251.297252,46 L251.297252,13.6933062 L272.992752,13.6933062 L272.947694,18.5821155 L256.749289,18.5821155 Z M286.217319,22.5584973 C287.659187,21.6948784 289.348851,21.2630754 291.286361,21.2630754 L291.286361,26.3546464 C288.853209,26.2344908 286.885689,26.8014668 285.383743,28.0555916 C283.881797,29.3097164 283.025701,31.0181542 282.815429,33.1809562 L282.815429,46 L277.498567,46 L277.498567,21.443308 L282.815429,21.443308 L282.815429,26.3546464 C283.641499,24.6874865 284.775451,23.4221161 286.217319,22.5584973 L286.217319,22.5584973 Z M314.468779,24.5410559 C316.39127,26.7263871 317.352501,29.8015751 317.352501,33.7667122 C317.352501,34.1722376 317.322462,34.8330838 317.262385,35.7492708 L298.698427,35.7492708 C299.133991,37.656742 300.027635,39.1586654 301.379387,40.2550858 C302.731138,41.3515063 304.375744,41.8997083 306.313254,41.8997083 C307.634966,41.8997083 308.896582,41.651891 310.098139,41.1562488 C311.299695,40.6606067 312.343532,39.9547027 313.22968,39.0385158 L316.045814,42.0348828 C314.814219,43.3565951 313.338579,44.377903 311.618851,45.098837 C309.899123,45.819771 307.995435,46.1802326 305.907731,46.1802326 C303.414501,46.1802326 301.221692,45.6583142 299.329241,44.6144619 C297.436789,43.5706095 295.968659,42.1099891 294.924806,40.2325568 C293.880954,38.3551244 293.359036,36.1998645 293.359036,33.7667122 C293.359036,31.3335599 293.880954,29.1745451 294.924806,27.2896031 C295.968659,25.404661 297.436789,23.9290213 299.329241,22.8626398 C301.221692,21.7962582 303.369443,21.2630754 305.772556,21.2630754 C309.647576,21.2630754 312.546289,22.3557247 314.468779,24.5410559 L314.468779,24.5410559 Z M310.661366,27.2220158 C309.42977,26.0880467 307.815202,25.5210706 305.817614,25.5210706 C303.880104,25.5210706 302.273046,26.0880467 300.996392,27.2220158 C299.719738,28.3559849 298.923719,29.9067208 298.60831,31.8742699 L312.643924,31.8742699 C312.553807,29.9067208 311.892961,28.3559849 310.661366,27.2220158 L310.661366,27.2220158 Z M334.756211,21.8938895 C336.280686,22.3444733 337.598624,22.9527522 338.710064,23.7187446 L336.772564,27.6388037 C335.691163,26.9629281 334.512153,26.4335001 333.235499,26.0505039 C331.958845,25.6675077 330.779835,25.4760125 329.698434,25.4760125 C328.586994,25.4760125 327.712124,25.6750173 327.073797,26.073033 C326.43547,26.4710486 326.116311,27.0830824 326.116311,27.9091526 C326.116311,28.7352228 326.491792,29.3660306 327.242765,29.8015949 C327.993738,30.2371592 329.247844,30.7327939 331.00512,31.2885139 C332.67228,31.784156 334.050295,32.2760359 335.139206,32.7641683 C336.228116,33.2523007 337.163064,33.9882432 337.944076,34.9720177 C338.725087,35.9557922 339.115587,37.2512011 339.115587,38.8582832 C339.115587,41.2613965 338.214433,43.0824786 336.412098,44.3215839 C334.609763,45.5606892 332.371898,46.1802326 329.698434,46.1802326 C327.851041,46.1802326 326.044978,45.8798479 324.280191,45.2790696 C322.515405,44.6782913 321.032256,43.8447238 319.830699,42.7783422 L321.723141,38.9934576 C322.774504,39.9096446 324.058648,40.645587 325.575613,41.201307 C327.092579,41.757027 328.549444,42.0348828 329.946254,42.0348828 C331.147811,42.0348828 332.116551,41.8208587 332.852505,41.3928041 C333.588458,40.9647496 333.956429,40.3001485 333.956429,39.398981 C333.956429,38.7231053 333.731141,38.1636389 333.280557,37.7205649 C332.829973,37.2774908 332.281771,36.9245389 331.635935,36.6616983 C330.990098,36.3988578 330.051396,36.0796991 328.8198,35.7042126 C327.182679,35.2085705 325.853477,34.7242002 324.832154,34.2510873 C323.810831,33.7779743 322.928451,33.0720704 322.184987,32.1333542 C321.441524,31.1946381 321.069798,29.9442869 321.069798,28.3822632 C321.069798,26.0392277 321.933404,24.2594485 323.660642,23.0428724 C325.38788,21.8262962 327.54314,21.2180173 330.126486,21.2180173 C331.68851,21.2180173 333.231736,21.4433058 334.756211,21.8938895 L334.756211,21.8938895 Z M365.801277,23.7863319 C367.415869,25.4685112 368.223153,27.7814731 368.223153,30.725287 L368.223153,46 L362.906291,46 L362.906291,32.212206 C362.906291,30.3648126 362.384373,28.907947 361.34052,27.8415654 C360.296668,26.7751838 358.851067,26.2420011 357.003673,26.2420011 C354.855891,26.27204 353.151208,27.0042276 351.889573,28.4385859 C350.627939,29.8729442 349.997131,31.6940262 349.997131,33.9018866 L349.997131,46 L344.680269,46 L344.680269,11.7558057 L349.997131,11.7558057 L349.997131,26.2420011 C351.69433,22.9227007 354.720705,21.2630754 359.076348,21.2630754 C361.945065,21.2630754 364.186685,22.1041525 365.801277,23.7863319 L365.801277,23.7863319 Z" id="Fresh" fill="#31C0C0"></path>
                <path d="M133.948284,47.7627957 L133.948284,39.4702186 L122.59363,39.4702186 L122.59363,47.7627957 L120.438348,47.7627957 L120.438348,28.9172243 L122.59363,28.9172243 L122.59363,37.4332147 L133.948284,37.4332147 L133.948284,28.9172243 L136.103565,28.9172243 L136.103565,47.7627957 L133.948284,47.7627957 Z M152.202467,35.665621 C153.332681,37.0893405 153.840832,39.0321409 153.726934,41.4940805 L142.162009,41.4940805 C142.337236,42.878374 142.891383,43.977907 143.824467,44.7927126 C144.757551,45.6075182 145.916222,46.0149149 147.300515,46.0149149 C148.176651,46.0149149 148.987063,45.8615936 149.731778,45.5549463 C150.476493,45.2482991 151.129204,44.8102381 151.68993,44.2407503 L152.846423,45.4760946 C152.163037,46.2295707 151.332912,46.8121918 150.356021,47.2239753 C149.379131,47.6357588 148.308072,47.8416475 147.142812,47.8416475 C145.758518,47.8416475 144.531948,47.5415757 143.463063,46.9414232 C142.394178,46.3412706 141.564053,45.4980033 140.972661,44.4115958 C140.38127,43.3251883 140.085579,42.0810951 140.085579,40.679279 C140.085579,39.2774628 140.385651,38.03556 140.985803,36.9535332 C141.585956,35.8715063 142.424843,35.0304293 143.502489,34.4302767 C144.580135,33.8301242 145.802325,33.5300524 147.169096,33.5300524 C149.394479,33.5300524 151.072252,34.2419015 152.202467,35.665621 L152.202467,35.665621 Z M150.461157,36.5264194 C149.606925,35.7291365 148.49206,35.330501 147.116528,35.330501 C145.76728,35.330501 144.643654,35.7335171 143.745615,36.5395614 C142.847577,37.3456057 142.319713,38.4232357 142.162009,39.7724837 L151.847634,39.7724837 C151.777543,38.405713 151.315389,37.3237024 150.461157,36.5264194 L150.461157,36.5264194 Z M166.132945,45.5812303 C165.002731,47.1057053 163.27239,47.8679314 160.94187,47.8679314 C159.986883,47.8679314 159.143616,47.6795652 158.412043,47.3028271 C157.68047,46.926089 157.115372,46.4069867 156.71673,45.7455048 C156.318089,45.0840228 156.118771,44.34589 156.118771,43.5310844 C156.118771,42.2957339 156.585306,41.3144774 157.51839,40.5872852 C158.451474,39.8600931 159.754705,39.4877413 161.428123,39.4702186 L166.080377,39.4702186 L166.080377,38.6422751 C166.080377,37.5821516 165.758402,36.7651679 165.114443,36.1912995 C164.470484,35.617431 163.526462,35.330501 162.28235,35.330501 C160.845489,35.330501 159.34732,35.869316 157.7878,36.9469622 L156.907289,35.4093528 C157.914844,34.7434901 158.843533,34.2594328 159.693384,33.9571662 C160.543235,33.6548996 161.542014,33.5037685 162.689751,33.5037685 C164.43326,33.5037685 165.775917,33.9330683 166.717762,34.7916807 C167.659607,35.650293 168.139284,36.8505801 168.156807,38.3925778 L168.183091,47.7627957 L166.132945,47.7627957 L166.132945,45.5812303 Z M164.42449,45.1935424 C165.274341,44.6284353 165.835059,43.8508771 166.106661,42.8608444 L166.106661,41.1655315 L161.690962,41.1655315 C159.290352,41.1655315 158.090065,41.9277576 158.090065,43.4522326 C158.090065,44.2407542 158.385756,44.8693717 158.977147,45.338104 C159.568539,45.8068362 160.359239,46.0411989 161.349271,46.0411989 C162.549576,46.0411989 163.574639,45.7586495 164.42449,45.1935424 L164.42449,45.1935424 Z M176.948778,34.351425 C177.807391,33.8038406 178.836834,33.5212912 180.037139,33.5037685 L180.037139,35.6196242 C178.565232,35.6021015 177.382468,36.0116885 176.48881,36.8483975 C175.595152,37.6851065 175.082621,38.8131135 174.9512,40.2324523 L174.9512,47.7627957 L172.861629,47.7627957 L172.861629,33.5826203 L174.9512,33.5826203 L174.9512,36.7235489 C175.424313,35.6897095 176.090166,34.8990094 176.948778,34.351425 L176.948778,34.351425 Z M195.886344,47.7627957 L193.78363,47.7627957 L193.78363,44.7270028 C193.249187,45.7345582 192.511055,46.5099261 191.569209,47.0531298 C190.627364,47.5963336 189.525641,47.8679314 188.264006,47.8679314 C186.932281,47.8679314 185.747326,47.563479 184.709106,46.9545651 C183.670886,46.3456512 182.864854,45.4936227 182.290985,44.3984538 C181.717117,43.3032849 181.430187,42.0548112 181.430187,40.6529951 C181.430187,39.2511789 181.717117,38.0092761 182.290985,36.9272492 C182.864854,35.8452224 183.668696,34.9997647 184.702535,34.3908509 C185.736375,33.781937 186.914759,33.4774846 188.237722,33.4774846 C189.490596,33.4774846 190.59889,33.7490824 191.562639,34.2922862 C192.526387,34.8354899 193.26671,35.619619 193.78363,36.6446971 L193.78363,27.7870157 L195.886344,27.7870157 L195.886344,47.7627957 Z M191.312941,45.3118201 C192.08394,44.8606105 192.688464,44.231993 193.126532,43.4259487 C193.564599,42.6199044 193.78363,41.7131182 193.78363,40.7055629 C193.78363,39.6804848 193.564599,38.7649374 193.126532,37.9588931 C192.688464,37.1528489 192.08394,36.5220411 191.312941,36.0664508 C190.541942,35.6108606 189.66144,35.3830689 188.671407,35.3830689 C187.681375,35.3830689 186.796491,35.6108606 186.016731,36.0664508 C185.236971,36.5220411 184.628066,37.1550392 184.189999,37.9654641 C183.751931,38.7758891 183.532901,39.6892462 183.532901,40.7055629 C183.532901,41.7131182 183.751931,42.6199044 184.189999,43.4259487 C184.628066,44.231993 185.236971,44.8606105 186.016731,45.3118201 C186.796491,45.7630296 187.681375,45.988631 188.671407,45.988631 C189.66144,45.988631 190.541942,45.7630296 191.312941,45.3118201 L191.312941,45.3118201 Z" id="Heard" fill="#31C0C0"></path>
            </g>
        </g>
    </g>
</svg>